<?xml version="1.0" standalone="no"?>
<!DOCTYPE svg PUBLIC "-//W3C//DTD SVG 20010904//EN"
 "http://www.w3.org/TR/2001/REC-SVG-20010904/DTD/svg10.dtd">
<svg version="1.0" xmlns="http://www.w3.org/2000/svg"
 width="700.000000pt" height="700.000000pt" viewBox="0 0 700.000000 700.000000"
 preserveAspectRatio="xMidYMid meet">
<metadata>
Created by potrace 1.14, written by Peter Selinger 2001-2017
</metadata>
<g transform="translate(0.000000,700.000000) scale(0.100000,-0.100000)"
fill="#000000" stroke="none">
<path d="M0 3500 l0 -3500 3500 0 3500 0 0 3500 0 3500 -3500 0 -3500 0 0
-3500z m3320 2452 c0 -19 -39 -73 -40 -55 0 6 5 15 11 19 7 4 8 9 0 17 -7 7
-15 6 -26 -3 -11 -9 -13 -15 -5 -20 8 -5 7 -9 -2 -13 -21 -8 -19 24 3 48 23
26 59 30 59 7z m294 -77 c-4 -9 2 -18 17 -23 18 -7 19 -10 6 -15 -19 -7 -41
17 -33 38 3 8 8 15 10 15 3 0 3 -7 0 -15z m-273 -12 c13 -16 12 -17 -3 -4 -10
7 -18 15 -18 17 0 8 8 3 21 -13z m64 -4 c10 -29 3 -31 -18 -3 -15 20 -15 24
-3 24 8 0 18 -9 21 -21z m-148 -1 c-2 -7 0 -21 5 -30 5 -10 5 -18 0 -18 -5 0
-14 12 -20 26 -7 14 -8 23 -2 19 5 -3 10 -1 10 4 0 6 3 11 6 11 3 0 4 -6 1
-12z m133 -28 c0 -5 -4 -10 -10 -10 -5 0 -10 5 -10 10 0 6 5 10 10 10 6 0 10
-4 10 -10z m-10 -15 l35 4 -23 -19 c-20 -16 -21 -22 -10 -45 6 -14 17 -24 24
-21 8 3 16 0 20 -5 4 -7 28 -8 65 -4 l59 7 29 -64 c16 -35 45 -110 65 -168 20
-57 54 -138 75 -180 21 -42 41 -88 44 -102 4 -15 19 -33 35 -40 24 -12 27 -19
27 -64 0 -47 18 -89 34 -80 3 2 15 -3 26 -11 20 -15 19 -15 -3 -10 -22 5 -23
3 -17 -21 7 -34 40 -62 71 -62 13 0 24 -4 24 -10 0 -5 -6 -10 -14 -10 -20 0
-37 -25 -30 -44 6 -15 53 -46 69 -46 13 0 3 49 -11 54 -9 4 -14 9 -11 12 3 3
38 -13 77 -35 40 -23 77 -40 84 -39 6 1 23 -5 39 -12 36 -17 36 -58 1 -91 -24
-22 -26 -23 -35 -6 -6 9 -15 15 -20 12 -5 -4 -7 -11 -3 -16 10 -17 13 -89 3
-89 -8 0 -13 14 -10 32 1 8 -48 48 -60 48 -5 0 -9 -7 -9 -15 0 -8 6 -15 13
-15 16 0 39 -37 28 -44 -5 -3 -12 -21 -15 -40 -8 -40 24 -134 54 -161 20 -18
21 -18 38 6 17 24 19 29 21 62 1 14 4 15 14 6 7 -7 11 -26 9 -43 -3 -25 -1
-28 8 -16 8 12 10 5 6 -30 -3 -25 -8 -84 -11 -132 -6 -75 -4 -87 11 -96 9 -5
25 -7 35 -5 11 3 19 0 19 -6 0 -7 -4 -9 -10 -6 -17 10 -11 -4 9 -24 19 -19 20
-19 27 12 6 28 8 30 15 12 11 -28 10 -43 -1 -25 -9 13 -10 13 -10 0 0 -8 9
-26 20 -40 18 -23 20 -23 20 -5 0 29 37 -34 42 -71 2 -19 10 -30 22 -32 19 -4
19 14 0 106 -6 31 -19 42 -26 21 -2 -5 -11 -7 -22 -3 -14 5 -16 14 -12 38 3
17 2 45 -3 63 -7 26 -7 31 5 26 8 -3 14 -1 14 5 0 14 48 -9 55 -27 5 -11 3
-12 -10 -1 -21 17 -28 7 -20 -29 8 -38 21 -48 65 -52 56 -5 72 -24 64 -77 -5
-32 -4 -43 5 -38 8 5 11 -10 11 -51 l0 -58 20 30 c17 25 20 27 20 10 0 -11 -6
-30 -14 -41 -13 -18 -13 -22 5 -35 12 -8 25 -23 31 -34 9 -16 8 -18 -3 -7 -15
14 -39 16 -39 3 0 -5 12 -24 27 -42 l27 -32 -31 17 c-37 19 -48 9 -38 -35 6
-26 9 -28 22 -17 14 11 15 10 9 -10 -10 -29 8 -29 29 1 16 22 16 22 30 3 8
-11 15 -29 15 -40 0 -20 0 -20 -14 0 -12 15 -17 17 -27 7 -7 -7 -23 -13 -36
-13 -16 0 -23 -6 -23 -20 0 -11 -7 -23 -15 -26 -8 -4 -15 -13 -15 -20 0 -8 7
-17 15 -20 8 -4 15 -15 15 -25 0 -10 8 -33 18 -51 10 -18 17 -39 14 -46 -2 -7
2 -19 8 -28 7 -8 10 -17 7 -21 -4 -3 -13 9 -21 28 -19 44 -26 51 -42 38 -26
-21 7 -110 181 -489 28 -63 58 -131 65 -150 7 -19 19 -42 25 -50 7 -8 15 -22
18 -30 4 -13 5 -13 10 0 3 8 8 27 11 43 4 15 11 27 17 27 7 0 9 -9 4 -22 -3
-13 -9 -34 -11 -48 -5 -23 -4 -24 7 -5 7 11 13 21 15 23 1 2 11 -1 22 -7 13
-7 23 -7 32 2 10 10 12 8 6 -7 -4 -13 -2 -17 8 -13 28 11 5 -22 -30 -42 -36
-22 -44 -50 -19 -71 10 -9 12 -16 5 -25 -16 -19 51 -206 119 -335 75 -141 138
-215 238 -276 85 -53 150 -74 234 -74 86 0 89 -2 89 -75 0 -46 -4 -66 -17 -77
-18 -15 -106 -19 -813 -32 -25 0 -196 3 -380 7 -184 4 -341 7 -348 7 -20 0
-29 40 -23 99 l6 54 85 17 c122 25 143 35 131 59 -13 24 8 35 43 21 18 -7 28
-5 37 6 10 12 10 15 -1 12 -7 -2 -15 3 -18 11 -3 8 0 11 7 7 17 -11 13 3 -10
32 l-20 27 26 8 c19 7 25 14 22 28 -3 10 0 20 7 23 8 3 7 5 -1 5 -7 1 -17 -8
-23 -20 -9 -15 -18 -19 -40 -15 -30 4 -93 46 -70 46 7 0 2 14 -14 34 l-26 34
25 16 c13 9 31 13 39 10 22 -8 20 8 -5 40 -14 18 -16 26 -7 27 7 0 8 3 3 5
-15 6 -6 81 11 95 11 9 14 6 14 -19 0 -18 7 -35 16 -40 9 -5 15 -15 12 -23 -3
-8 1 -20 8 -27 9 -9 11 -20 4 -37 -5 -13 -7 -33 -5 -44 2 -12 0 -21 -6 -21 -5
0 -9 -7 -9 -15 0 -8 9 -15 19 -15 34 0 49 10 44 31 -5 17 -2 18 20 10 45 -17
52 8 24 81 -14 35 -31 81 -37 103 -7 22 -16 45 -20 50 -4 6 -10 22 -13 36 -5
21 -12 26 -31 24 -14 -2 -30 -6 -35 -10 -16 -9 -31 3 -24 21 3 8 13 12 22 10
9 -3 23 -1 31 4 12 8 12 13 -3 44 -9 20 -23 36 -31 36 -20 0 -106 40 -106 49
0 5 16 5 35 1 47 -11 52 2 19 45 -20 27 -24 39 -16 47 19 19 14 33 -5 15 -22
-18 -59 -24 -92 -13 -23 8 -23 9 -6 19 14 7 20 7 23 -1 6 -20 20 -13 36 18 8
17 11 30 6 30 -5 0 -10 -5 -12 -12 -3 -9 -12 -9 -36 1 -27 11 -30 16 -21 32 7
14 6 25 -6 41 -8 13 -15 33 -15 45 0 21 -5 23 -50 23 -39 0 -48 3 -44 14 3 8
12 12 19 10 7 -3 16 -1 19 5 7 11 -41 27 -51 17 -3 -3 -12 -1 -19 5 -13 11
-67 2 -59 -11 3 -4 -6 -11 -20 -14 -29 -7 -32 -23 -7 -43 12 -10 8 -10 -16 2
l-32 16 3 -43 c1 -24 6 -49 11 -56 7 -11 4 -11 -15 0 -27 15 -28 15 -51 47
-12 17 -22 21 -37 16 -12 -3 -19 -11 -16 -16 15 -24 -26 -5 -59 27 -35 34 -44
62 -12 35 12 -10 14 -9 9 8 -10 38 -68 30 -110 -15 -27 -29 -28 -34 -8 -34 8
0 15 7 15 15 0 8 5 15 10 15 6 0 10 -4 10 -9 0 -14 -23 -28 -57 -36 -26 -5
-33 -3 -33 9 0 9 -6 16 -13 16 -8 0 -28 18 -46 40 -30 38 -35 40 -85 40 -35 0
-58 -5 -66 -15 -15 -18 -34 -20 -24 -3 4 6 -3 4 -17 -5 -13 -9 -31 -17 -41
-17 -10 0 -18 -6 -18 -14 0 -18 -51 -8 -67 13 -8 11 -12 12 -13 4 0 -19 -20
-16 -39 5 -9 10 -32 19 -51 20 -19 1 -43 5 -52 8 -10 3 -18 0 -18 -6 0 -6 -3
-9 -7 -7 -5 3 -47 8 -95 12 -87 6 -94 4 -90 -26 2 -10 -37 2 -44 12 -3 5 -11
9 -17 9 -7 0 -4 -7 7 -15 17 -13 17 -14 -3 -36 -22 -23 -29 -45 -11 -34 14 8
13 -8 -1 -22 -6 -6 -18 -9 -25 -6 -15 6 -18 -10 -15 -66 2 -26 0 -33 -11 -28
-18 6 -73 -96 -64 -120 4 -8 0 -21 -8 -27 -18 -14 -76 -148 -76 -174 0 -11 -5
-22 -12 -24 -8 -3 -4 -12 9 -25 18 -18 24 -19 45 -9 30 16 47 10 41 -14 -3
-11 -9 -17 -14 -14 -5 3 -7 10 -4 15 9 13 -8 11 -30 -4 -12 -10 -15 -16 -6
-21 13 -8 -3 -46 -20 -46 -6 0 -7 5 -4 10 3 6 0 10 -7 11 -10 0 -10 2 0 6 17
7 15 27 -6 46 -17 15 -18 14 -17 -11 1 -15 6 -40 13 -55 16 -37 15 -45 -5 -65
-16 -16 -16 -16 -10 0 8 22 -12 36 -24 17 -5 -8 -8 -23 -8 -34 0 -11 3 -14 6
-7 8 20 23 3 23 -28 0 -35 15 -47 29 -23 8 15 10 10 11 -22 0 -30 -3 -36 -12
-27 -7 7 -18 12 -26 12 -8 0 3 -17 24 -38 24 -24 42 -34 46 -28 4 6 8 7 8 2 0
-5 -16 -24 -36 -41 -28 -25 -35 -37 -29 -54 4 -12 13 -20 23 -19 9 2 22 -8 29
-23 11 -23 22 -27 120 -43 60 -10 119 -23 133 -30 23 -11 25 -16 23 -76 -4
-98 -6 -98 -210 -94 -92 2 -360 6 -594 8 -235 2 -432 7 -438 10 -14 9 -15 111
-1 136 5 10 32 26 60 35 27 9 52 21 56 26 10 17 7 91 -5 99 -17 10 6 57 30 63
11 3 19 11 19 17 0 9 -5 9 -17 -1 -10 -8 0 7 21 34 35 43 57 63 40 36 -4 -8 0
-9 15 -4 14 4 23 2 27 -9 4 -10 17 -13 46 -11 36 4 39 3 22 -10 -15 -12 -16
-14 -3 -15 8 0 20 5 27 12 9 9 12 9 12 0 0 -7 -4 -12 -10 -12 -5 0 -10 -11
-10 -25 0 -14 2 -25 4 -25 3 0 23 19 45 42 44 44 56 77 22 58 -29 -15 -38 -12
-15 5 18 14 18 15 0 8 -18 -6 -18 -5 -1 20 9 15 20 27 24 27 10 0 37 61 36 80
0 8 4 19 10 23 5 4 -8 5 -30 2 -34 -5 -36 -4 -16 5 23 10 65 18 102 19 9 1 19
7 22 14 3 6 13 30 22 52 l17 40 -25 -23 c-16 -15 -27 -20 -32 -13 -3 6 -2 11
4 11 6 0 18 15 27 33 10 17 19 26 21 20 9 -26 22 -11 38 42 8 30 13 65 10 78
-5 18 0 26 18 36 23 12 57 74 72 128 7 24 -6 55 -36 87 -25 26 -24 36 5 36 13
0 29 7 36 15 7 8 22 15 33 15 20 0 20 1 2 20 -18 20 -18 21 -1 38 16 16 17 16
10 0 -7 -21 -4 -21 31 -8 22 8 26 15 21 35 -5 18 -3 23 7 19 22 -8 38 40 25
76 -5 17 -8 34 -4 37 3 4 6 0 6 -7 0 -9 7 -6 20 8 22 23 26 42 9 42 -6 0 -8 9
-4 23 6 17 5 20 -5 10 -10 -9 -17 -7 -31 10 -10 12 -18 16 -19 10 0 -7 -7 -13
-16 -13 -8 0 -13 4 -9 9 14 23 -19 21 -39 -2 -11 -14 -36 -28 -54 -32 -18 -4
-30 -11 -27 -16 4 -5 -1 -6 -10 -2 -10 3 -20 1 -24 -5 -4 -6 -12 -7 -20 -3 -9
6 6 14 45 27 33 10 69 29 82 41 13 13 29 23 37 23 19 0 19 11 -1 36 -8 10 -12
12 -8 4 6 -12 5 -13 -7 -4 -8 6 -19 13 -26 15 -15 5 13 69 30 69 6 0 8 -3 4
-6 -3 -3 0 -12 6 -19 14 -16 37 -1 37 24 0 13 2 13 9 2 11 -16 34 -4 27 14 -2
7 6 22 20 34 26 22 36 53 10 32 -9 -7 -17 -8 -20 -3 -3 6 1 13 10 16 8 3 13 9
10 14 -2 4 7 12 20 19 17 8 24 8 24 0 0 -6 3 -7 6 -4 4 4 1 14 -6 22 -11 13
-9 20 13 43 15 16 27 33 27 40 0 7 5 12 12 12 6 0 8 3 5 6 -7 8 23 64 35 64 4
0 14 12 23 28 15 26 16 26 9 2 -6 -24 -6 -24 10 -5 15 20 15 20 16 -2 0 -41
19 -24 55 50 20 39 29 63 20 53 -8 -11 -15 -23 -15 -28 0 -4 -4 -8 -10 -8 -15
0 -12 11 12 50 25 39 44 84 63 150 10 33 14 38 15 20 2 -38 70 104 70 146 0
19 5 34 11 34 7 0 9 10 7 25 -3 14 -1 25 3 25 5 0 9 5 9 12 0 6 7 19 15 28 8
9 17 43 20 75 6 57 6 59 -11 40 -15 -18 -16 -18 -10 -2 3 10 6 23 6 28 0 6 6
7 13 3 8 -5 8 -2 -2 9 -7 9 -15 17 -18 17 -2 0 -13 -20 -23 -44 -24 -52 -48
-76 -59 -58 -9 16 -43 4 -35 -12 3 -6 -4 0 -16 14 -12 14 -19 20 -16 13 3 -6
0 -13 -6 -16 -11 -3 -11 -9 0 -26 11 -18 10 -21 -7 -21 -12 0 -23 -9 -27 -22
-4 -13 -11 -26 -17 -30 -7 -4 -6 -12 2 -22 7 -9 17 -14 21 -11 11 7 19 -42 8
-53 -5 -5 -2 -21 7 -38 15 -29 21 -63 8 -51 -3 4 -12 2 -20 -5 -10 -8 -12 -8
-8 3 3 8 1 28 -4 44 -9 30 -9 29 -10 -11 -1 -31 -8 -47 -31 -69 -16 -16 -30
-37 -30 -46 0 -10 -4 -20 -9 -24 -15 -9 -10 -65 6 -65 7 0 13 -4 13 -10 0 -5
-4 -10 -10 -10 -5 0 -8 -6 -6 -12 1 -7 1 -10 -1 -5 -12 19 -31 5 -28 -20 3
-24 0 -28 -21 -29 -19 -2 -24 2 -20 13 3 8 6 27 6 41 0 21 2 24 10 12 8 -13
10 -13 10 2 0 17 -15 31 -37 34 -8 2 -13 -11 -14 -34 0 -32 -2 -34 -9 -15 -5
13 -5 36 1 57 11 38 54 96 72 96 7 0 23 9 36 19 21 16 24 26 22 67 -1 27 -6
52 -10 57 -10 10 -1 68 9 62 4 -3 10 4 13 15 3 12 -1 24 -11 29 -19 11 -23 74
-4 66 7 -2 18 7 24 20 12 27 31 35 22 10 -10 -26 12 -16 27 11 7 14 33 39 56
56 53 36 71 62 82 119 l9 44 1 -37 c1 -40 11 -47 31 -23 7 8 17 12 22 9 6 -4
14 0 19 7 6 10 9 10 9 2 0 -7 -16 -19 -35 -27 -32 -14 -52 -35 -22 -23 13 5
39 -17 30 -26 -7 -7 6 -47 16 -47 5 0 7 17 5 38 -1 21 2 45 7 53 5 8 9 10 9 6
0 -5 4 -6 9 -2 9 5 -33 105 -44 105 -2 0 -16 -5 -30 -10 -24 -9 -26 -8 -20 11
4 13 0 27 -11 40 -17 18 -17 20 2 34 10 8 25 15 32 15 7 0 11 4 7 10 -3 5 -13
6 -23 3 -15 -6 -15 -5 -3 10 7 9 22 17 32 17 10 0 23 9 29 19 16 31 12 34 -19
12 -41 -29 -52 -26 -16 5 27 23 28 25 7 21 -12 -3 -19 -1 -16 4 3 6 13 9 22 7
24 -4 42 10 42 32 0 10 5 22 11 26 14 8 9 -53 -8 -86 -14 -27 -17 -48 -6 -37
3 4 12 2 20 -4 8 -8 13 -8 13 -1 0 6 -6 13 -12 15 -9 3 -3 14 17 32 19 18 26
29 17 32 -6 3 -9 9 -6 15 4 6 1 14 -6 18 -11 7 -9 14 6 37 10 15 17 32 16 36
-1 5 2 6 8 2 8 -5 7 -11 -1 -21 -16 -20 9 -18 36 2 15 11 17 17 7 23 -18 11
-5 101 14 94 8 -3 15 5 19 24 11 45 13 50 14 21 1 -15 6 -30 11 -33 6 -3 10
-17 10 -30 0 -13 5 -27 12 -31 7 -5 9 -2 5 9 -4 11 -2 14 9 10 11 -4 12 -9 3
-19 -6 -8 -17 -14 -24 -14 -15 0 -25 -21 -21 -46 2 -11 -4 -26 -13 -34 -20
-18 -51 -66 -51 -77 0 -4 5 0 11 10 7 12 17 15 35 11 21 -5 25 -2 30 25 4 17
10 31 14 31 4 0 11 11 14 25 4 14 11 25 16 25 6 0 8 -11 4 -25 -3 -14 -2 -25
2 -25 11 0 87 177 89 206 1 11 5 25 9 32 4 7 4 17 1 22 -4 6 -1 9 7 8 17 -4
79 121 72 145 -3 9 0 17 5 17 24 0 94 201 73 208 -11 3 -3 62 9 62 4 0 11 -5
15 -11 5 -8 10 -6 16 5 5 9 6 21 2 28 -4 7 -3 8 5 4 6 -4 14 0 17 9 10 25 -3
29 -30 11 -14 -9 -34 -16 -45 -16 -23 0 -35 26 -15 34 8 3 14 13 14 23 0 13 3
14 12 5 28 -28 29 -16 12 78 -3 15 -1 20 4 13 4 -7 22 -10 42 -8z m-83 -187
c-3 -8 -6 -5 -6 6 -1 11 2 17 5 13 3 -3 4 -12 1 -19z m-108 -119 c-10 -6 -7
-11 11 -18 14 -5 20 -10 13 -10 -24 -2 -43 12 -43 30 0 13 5 16 16 12 12 -5
13 -7 3 -14z m701 -56 c-1 -24 -2 -26 -11 -10 -5 9 -7 22 -4 27 10 17 15 11
15 -17z m-104 -20 c-4 -4 -11 -1 -16 7 -16 25 -11 35 7 17 9 -9 13 -20 9 -24z
m-772 -138 c-4 -8 -8 -15 -10 -15 -2 0 -4 7 -4 15 0 8 4 15 10 15 5 0 7 -7 4
-15z m59 -49 c-6 -12 -10 -10 -20 10 -6 13 -7 22 -3 19 5 -3 12 0 17 7 11 18
17 -17 6 -36z m741 28 c21 -20 22 -52 2 -35 -12 10 -29 51 -21 51 2 0 11 -7
19 -16z m-813 -37 c-10 -9 -11 -8 -5 6 3 10 9 15 12 12 3 -3 0 -11 -7 -18z
m24 -34 c-16 -16 -30 -26 -31 -23 -1 3 -12 -4 -25 -15 -20 -16 -21 -17 -9 -2
10 14 11 20 2 26 -17 10 32 34 83 40 5 0 -4 -11 -20 -26z m-122 -7 c4 -10 1
-13 -8 -9 -8 3 -12 9 -9 14 7 12 11 11 17 -5z m47 -78 c0 -18 -2 -20 -9 -8 -6
8 -7 18 -5 22 9 14 14 9 14 -14z m911 -35 c13 -16 12 -17 -3 -4 -17 13 -22 21
-14 21 2 0 10 -8 17 -17z m-790 -64 c-5 -13 -10 -19 -10 -12 -1 15 10 45 15
40 3 -2 0 -15 -5 -28z m995 -25 c-4 -9 -9 -15 -11 -12 -3 3 -3 13 1 22 4 9 9
15 11 12 3 -3 3 -13 -1 -22z m-52 -5 c22 -12 49 -25 58 -30 10 -5 25 -6 35 -2
12 4 10 -1 -7 -16 l-25 -22 27 4 c15 2 25 0 22 -4 -3 -5 -18 -9 -35 -9 -16 0
-29 -5 -29 -11 0 -6 -15 0 -34 14 -18 14 -45 29 -60 33 -25 6 -32 15 -20 26 3
3 21 2 40 -2 19 -4 34 -4 34 1 0 5 -8 9 -18 9 -10 0 -23 5 -30 12 -8 8 -15 8
-27 -2 -9 -7 -15 -8 -15 -2 0 10 15 20 34 21 4 1 27 -9 50 -20z m145 -12 c0
-9 -2 -9 -6 1 -2 6 -11 12 -19 12 -8 0 -14 5 -14 10 0 7 6 7 20 0 11 -6 20
-16 19 -23z m-1269 19 c0 -2 -3 -12 -6 -21 -5 -13 -9 -14 -15 -4 -6 10 -11 10
-26 -1 -16 -13 -16 -12 1 8 16 19 46 31 46 18z m-160 -211 c10 -12 10 -15 -4
-15 -9 0 -16 7 -16 15 0 8 2 15 4 15 2 0 9 -7 16 -15z m1530 -119 c0 -2 -7 -6
-15 -10 -8 -3 -15 -1 -15 4 0 6 7 10 15 10 8 0 15 -2 15 -4z m-22 -37 c2 -4 9
-6 17 -3 8 3 12 -1 12 -13 -3 -25 -16 -33 -43 -23 -12 5 -25 6 -28 3 -3 -4 -6
-1 -6 5 0 7 5 12 10 12 6 0 10 7 10 16 0 14 -3 14 -15 4 -15 -12 -22 0 -8 13
8 9 47 -2 51 -14z m-64 -30 c-8 -14 -24 -10 -24 6 0 9 6 12 15 9 8 -4 12 -10
9 -15z m-1 -60 c3 -10 1 -19 -4 -19 -5 0 -9 6 -9 14 0 7 -10 26 -22 42 l-22
29 26 -23 c14 -13 28 -32 31 -43z m-93 -1 c0 -10 2 -10 8 -2 5 8 13 4 25 -12
21 -28 20 -29 -21 -8 -31 15 -43 34 -22 34 6 0 10 -6 10 -12z m58 -87 c-15 -5
-19 4 -11 24 6 18 7 18 13 -1 4 -10 3 -21 -2 -23z m155 -215 l-6 -58 -18 23
c-23 29 -24 43 -3 35 8 -3 13 -2 9 3 -6 10 13 67 20 60 2 -3 1 -31 -2 -63z
m-1583 29 c-6 -8 -11 -22 -10 -32 4 -31 0 -40 -15 -40 -8 0 -15 8 -15 18 0 12
-5 16 -14 13 -32 -12 -24 17 8 33 20 9 36 21 36 25 0 5 5 6 10 3 8 -5 7 -11 0
-20z m1643 -2 c-7 -2 -19 -2 -25 0 -7 3 -2 5 12 5 14 0 19 -2 13 -5z m-128
-63 c3 -5 1 -10 -4 -10 -6 0 -11 5 -11 10 0 6 2 10 4 10 3 0 8 -4 11 -10z
m345 -160 c0 -5 -5 -10 -11 -10 -5 0 -7 5 -4 10 3 6 8 10 11 10 2 0 4 -4 4
-10z m-1994 -107 c-3 -4 -6 0 -6 7 0 9 -6 8 -20 -5 -24 -22 -27 -9 -3 17 15
17 18 17 26 3 5 -9 6 -19 3 -22z m-155 -115 c-7 -18 -9 -14 -9 22 0 36 2 40 9
23 5 -13 4 -33 0 -45z m94 22 c-3 -5 -1 -10 4 -10 6 0 11 -6 11 -13 0 -8 -7
-14 -15 -14 -15 0 -21 28 -8 40 10 10 15 8 8 -3z m-45 -40 c6 -11 8 -20 6 -20
-3 0 -10 9 -16 20 -6 11 -8 20 -6 20 3 0 10 -9 16 -20z m2170 -49 c0 -5 -9 -7
-20 -4 -11 3 -20 7 -20 9 0 2 9 4 20 4 11 0 20 -4 20 -9z m-2355 -271 c-3 -5
-17 -10 -31 -10 -13 0 -24 5 -24 10 0 6 14 10 31 10 17 0 28 -4 24 -10z m2355
-109 c0 -6 -11 -23 -25 -38 l-26 -28 23 37 c25 40 28 43 28 29z m-2340 -157
c0 -8 -4 -14 -10 -14 -5 0 -10 9 -10 21 0 11 5 17 10 14 6 -3 10 -13 10 -21z
m1550 -212 c0 -4 -9 -13 -19 -19 -16 -10 -18 -9 -14 8 5 18 33 28 33 11z
m-725 -52 c10 -11 15 -20 11 -20 -4 0 -16 9 -28 20 -12 11 -17 20 -11 20 5 0
18 -9 28 -20z m815 -15 c7 -9 8 -15 2 -15 -5 0 -12 7 -16 15 -3 8 -4 15 -2 15
2 0 9 -7 16 -15z m-105 -53 c-3 -3 -11 0 -18 7 -9 10 -8 11 6 5 10 -3 15 -9
12 -12z m-35 -32 c0 -5 -2 -10 -4 -10 -3 0 -8 5 -11 10 -3 6 -1 10 4 10 6 0
11 -4 11 -10z m1110 -46 c0 -9 -44 14 -48 25 -3 8 5 7 22 -4 14 -10 26 -19 26
-21z m-847 -61 c-7 -2 -19 -2 -25 0 -7 3 -2 5 12 5 14 0 19 -2 13 -5z m-1587
-166 c8 -4 14 -16 14 -25 -1 -13 -6 -11 -25 11 -25 28 -31 60 -17 94 5 13 8 5
10 -27 2 -26 10 -48 18 -53z m-546 -152 c-7 -9 -15 -13 -19 -10 -3 3 1 10 9
15 21 14 24 12 10 -5z m539 -92 c-23 -46 -34 -57 -48 -49 -6 4 -3 14 9 26 11
11 20 26 20 34 0 13 13 23 31 25 4 1 -2 -16 -12 -36z m-701 -13 c1 -22 -1 -40
-6 -40 -6 0 -7 31 -3 73 2 21 8 2 9 -33z m89 -7 c-3 -10 -5 -4 -5 12 0 17 2
24 5 18 2 -7 2 -21 0 -30z m-57 -27 c0 -2 -7 -9 -15 -16 -13 -11 -14 -10 -9 4
5 14 24 23 24 12z m623 -36 c-3 -12 -8 -19 -11 -16 -5 6 5 36 12 36 2 0 2 -9
-1 -20z m-628 -19 c-17 -17 -85 -42 -85 -31 0 5 1 10 3 10 1 0 20 7 42 15 48
17 52 18 40 6z m623 -56 c-3 -3 -9 2 -12 12 -6 14 -5 15 5 6 7 -7 10 -15 7
-18z m1792 -91 c0 -2 -12 -4 -27 -4 -21 0 -24 3 -14 9 13 8 41 5 41 -5z m-117
-49 c-7 -21 -12 -19 -10 4 0 11 5 18 9 15 4 -3 5 -11 1 -19z m1277 -1729 c6
-8 21 -16 33 -18 20 -3 22 -9 22 -78 l0 -75 -110 0 -110 0 0 75 c0 69 2 75 22
78 12 2 27 10 33 18 7 8 30 14 55 14 25 0 48 -6 55 -14z m386 -31 c60 -61 -11
-175 -84 -136 -30 16 -32 15 -32 -29 0 -33 -3 -40 -20 -40 -19 0 -20 7 -20
114 l0 113 66 1 c57 1 69 -2 90 -23z m94 -55 c0 -73 -2 -80 -20 -80 -18 0 -20
7 -20 73 0 76 4 87 27 87 10 0 13 -20 13 -80z m105 53 l18 -27 21 27 c12 15
32 27 44 27 l23 0 -26 -37 c-31 -46 -31 -48 1 -90 l25 -33 -25 0 c-15 0 -32
10 -43 26 l-19 26 -17 -26 c-11 -17 -27 -26 -43 -26 l-25 0 25 33 c32 42 32
44 1 90 l-26 37 24 0 c16 0 31 -10 42 -27z m262 5 c13 -12 23 -32 23 -45 0
-22 -4 -23 -61 -23 -52 0 -60 -2 -55 -16 3 -9 6 -18 6 -20 0 -8 59 -4 64 5 3
5 16 7 28 3 21 -5 21 -6 -6 -29 -31 -27 -56 -29 -95 -8 -33 16 -41 33 -41 80
0 65 88 99 137 53z m103 6 c0 -14 2 -14 22 0 30 22 48 20 48 -4 0 -13 -7 -20
-19 -20 -28 0 -51 -38 -51 -82 0 -31 -4 -38 -20 -38 -18 0 -20 7 -20 80 0 73
2 80 20 80 11 0 20 -7 20 -16z m214 -3 c16 -17 16 -19 -4 -24 -11 -3 -23 -1
-26 4 -8 14 -54 11 -54 -4 0 -7 20 -18 44 -25 65 -17 74 -68 16 -92 -34 -14
-94 1 -104 25 -6 18 25 20 54 5 22 -12 53 -3 47 14 -2 6 -19 15 -38 21 -19 5
-40 14 -46 18 -19 12 -16 54 5 66 29 17 87 13 106 -8z m-684 -196 c0 -8 -9
-15 -20 -15 -11 0 -20 7 -20 15 0 8 9 15 20 15 11 0 20 -7 20 -15z"/>
<path d="M3355 5760 c3 -5 8 -10 11 -10 2 0 4 5 4 10 0 6 -5 10 -11 10 -5 0
-7 -4 -4 -10z"/>
<path d="M3331 5694 c0 -11 3 -14 6 -6 3 7 2 16 -1 19 -3 4 -6 -2 -5 -13z"/>
<path d="M3446 5654 c-23 -23 -21 -65 4 -71 11 -3 20 -9 20 -14 0 -5 -4 -8 -8
-6 -15 4 -63 -53 -66 -79 -2 -14 -11 -35 -20 -45 -22 -27 -38 -69 -26 -69 26
0 -21 -109 -47 -110 -19 0 -25 -18 -12 -41 9 -17 8 -24 -2 -31 -10 -6 -7 -7 9
-3 12 4 22 2 22 -4 0 -6 -17 -15 -38 -21 -35 -9 -40 -14 -49 -55 -11 -49 -9
-55 19 -55 12 0 18 -7 18 -23 0 -22 16 -47 31 -47 4 0 6 17 4 38 -1 20 0 25 2
10 2 -16 11 -28 19 -28 8 0 14 -3 14 -8 0 -4 14 -13 31 -21 27 -12 32 -11 52
5 l22 19 -18 -22 c-21 -25 -20 -84 2 -91 10 -3 12 1 8 17 -6 25 1 27 18 4 12
-16 14 -14 22 16 5 19 18 39 28 45 11 6 22 14 25 17 3 4 14 3 25 -2 17 -6 17
-8 3 -8 -22 -1 -23 -17 -2 -29 9 -5 15 -13 15 -18 -1 -5 4 -9 10 -9 19 0 20
58 1 78 -15 17 -15 20 0 31 17 12 14 71 -3 61 -4 -3 -1 11 7 31 8 20 13 43 10
50 -3 8 0 13 6 11 7 -1 13 10 13 26 1 23 -2 26 -20 22 -20 -6 -20 -6 -1 9 12
9 14 16 7 16 -8 0 -12 12 -10 33 4 45 -10 82 -24 68 -19 -19 -47 -12 -57 15
-13 33 -13 47 0 39 16 -10 15 67 -1 98 -6 10 -6 17 0 17 5 0 14 -15 20 -32 9
-25 14 -30 20 -19 6 9 4 26 -4 45 -20 46 -28 69 -30 89 -1 11 -6 22 -12 25 -5
4 -12 15 -16 25 -8 21 -21 22 -41 1z m-36 -259 c7 -8 8 -15 2 -15 -5 0 -15 7
-22 15 -7 8 -8 15 -2 15 5 0 15 -7 22 -15z m64 -34 c-5 -22 -1 -32 21 -49 15
-12 24 -26 20 -32 -8 -14 -24 -3 -36 23 -5 12 -14 29 -21 38 -12 18 -5 49 11
49 6 0 8 -12 5 -29z m-49 -86 c-6 -46 -5 -55 8 -55 19 0 33 -20 20 -29 -18
-12 -22 -40 -7 -43 12 -2 9 -12 -15 -48 -16 -24 -27 -49 -25 -55 3 -5 -1 -2
-9 7 -10 13 -16 15 -25 6 -17 -17 -15 -8 9 41 16 33 19 55 15 103 -2 33 -9 65
-15 71 -6 6 -11 16 -11 22 0 5 7 1 15 -9 14 -19 15 -19 15 5 0 27 7 39 22 39
6 0 6 -24 3 -55z m155 45 c8 -5 11 -10 5 -10 -5 0 -17 5 -25 10 -8 5 -10 10
-5 10 6 0 17 -5 25 -10z m-73 -227 c-3 -10 -5 -4 -5 12 0 17 2 24 5 18 2 -7 2
-21 0 -30z m-67 -64 c0 -6 -4 -7 -10 -4 -5 3 -10 11 -10 16 0 6 5 7 10 4 6 -3
10 -11 10 -16z m-49 -13 c12 7 11 -7 -1 -26 -6 -9 -10 -10 -10 -3 0 6 -2 17
-3 25 -2 7 -2 10 0 5 3 -4 9 -5 14 -1z"/>
<path d="M3410 5130 c0 -5 5 -10 10 -10 6 0 10 5 10 10 0 6 -4 10 -10 10 -5 0
-10 -4 -10 -10z"/>
<path d="M3550 5431 c0 -6 5 -13 10 -16 6 -3 10 1 10 9 0 9 -4 16 -10 16 -5 0
-10 -4 -10 -9z"/>
<path d="M3641 5143 c-11 -12 -12 -20 -3 -34 7 -10 12 -31 13 -46 0 -26 1 -26
9 -7 5 12 13 25 19 28 6 4 8 13 4 22 -4 12 -8 12 -20 2 -14 -11 -15 -8 -9 20
8 36 7 38 -13 15z"/>
<path d="M3190 4996 c0 -17 5 -26 16 -26 10 0 14 7 12 22 -5 32 -28 35 -28 4z"/>
<path d="M3300 4941 c-6 -12 -7 -21 -1 -21 10 0 24 30 17 37 -2 3 -9 -5 -16
-16z"/>
<path d="M3670 4951 c0 -4 -11 -6 -25 -3 -26 5 -31 -3 -16 -27 6 -9 11 -10 15
-2 4 6 12 11 18 11 6 0 5 -7 -4 -17 -9 -10 -17 -25 -20 -33 -3 -8 -11 -15 -19
-16 -43 -3 -49 -5 -49 -15 0 -6 8 -8 19 -4 26 8 60 -40 42 -58 -8 -8 -11 -8
-11 2 0 8 -7 10 -20 6 -15 -5 -18 -3 -14 9 4 11 0 16 -11 16 -18 0 -15 -20 11
-74 8 -16 14 -35 14 -43 0 -10 6 -12 21 -8 14 5 19 3 15 -4 -4 -6 -9 -26 -11
-46 -4 -29 -2 -35 14 -35 10 0 26 9 36 20 22 25 31 19 15 -10 -10 -18 -9 -21
7 -18 12 2 17 -2 15 -14 -4 -26 32 -40 85 -32 51 7 95 41 72 55 -7 4 -10 11
-6 15 4 4 2 13 -4 21 -17 20 10 17 33 -4 10 -9 18 -11 18 -5 0 6 -14 22 -31
34 -17 13 -37 36 -45 53 -8 16 -24 41 -35 55 -11 14 -18 19 -14 13 3 -7 3 -18
-1 -24 -7 -12 -53 37 -54 58 0 6 -6 13 -12 16 -10 4 -10 7 0 18 20 21 14 34
-8 14 -11 -10 -20 -24 -20 -32 0 -7 -4 -13 -9 -13 -10 0 4 72 19 101 14 25 13
29 -10 29 -11 0 -20 -4 -20 -9z m8 -142 c11 0 13 -2 4 -6 -22 -9 -42 5 -35 24
7 17 8 17 11 1 2 -10 11 -18 20 -19z m132 -70 c0 -6 -4 -7 -10 -4 -5 3 -10 11
-10 16 0 6 5 7 10 4 6 -3 10 -11 10 -16z m-30 -70 c21 -6 19 -7 -15 -8 -22 0
-51 6 -65 14 -24 13 -23 14 15 8 22 -3 51 -10 65 -14z"/>
<path d="M3195 4939 c-4 -6 -5 -13 -2 -16 7 -7 27 6 27 18 0 12 -17 12 -25 -2z"/>
<path d="M3257 4930 c4 -16 8 -18 19 -9 20 16 17 29 -5 29 -14 0 -18 -5 -14
-20z"/>
<path d="M3215 4896 c-15 -28 -16 -37 -6 -49 8 -10 9 -17 1 -22 -19 -12 -10
-25 16 -25 21 0 25 3 18 18 -4 9 -7 38 -6 65 0 26 0 47 -2 47 -2 0 -11 -15
-21 -34z"/>
<path d="M2926 4905 c-3 -8 -1 -15 3 -15 5 0 11 7 15 15 3 8 1 15 -3 15 -5 0
-11 -7 -15 -15z"/>
<path d="M3125 4890 c-3 -5 -1 -10 4 -10 6 0 11 5 11 10 0 6 -2 10 -4 10 -3 0
-8 -4 -11 -10z"/>
<path d="M2958 4864 c-2 -34 -3 -39 -11 -51 -4 -6 -4 -19 -1 -28 5 -13 9 -14
15 -4 6 10 11 10 23 0 18 -15 22 -1 6 15 -7 7 -7 19 -1 35 8 21 10 22 16 7 7
-18 25 -15 25 3 0 6 -4 8 -9 5 -5 -3 -12 1 -15 10 -4 9 -9 14 -13 11 -3 -4
-12 -2 -20 4 -10 9 -13 7 -15 -7z"/>
<path d="M3116 4829 c-8 -16 -12 -37 -9 -46 5 -12 3 -14 -6 -8 -18 10 -31 -12
-31 -52 0 -25 -4 -31 -15 -27 -15 6 -18 -5 -16 -51 0 -11 -2 -14 -5 -7 -3 6
-10 10 -15 6 -15 -9 -10 -40 10 -58 18 -16 20 -16 50 13 17 17 31 38 31 48 0
10 15 33 34 51 35 33 38 52 20 140 -6 31 -30 27 -48 -9z"/>
<path d="M4064 4808 c-4 -6 -3 -13 2 -15 5 -2 16 -8 24 -13 24 -15 1 -25 -30
-13 -17 6 -30 7 -30 2 0 -5 7 -9 16 -9 8 0 13 -4 9 -9 -9 -16 15 -23 32 -9 13
10 17 10 20 1 7 -20 30 -15 36 6 8 31 -64 84 -79 59z"/>
<path d="M2876 4765 c-3 -9 1 -18 10 -22 19 -7 26 0 18 21 -8 20 -20 21 -28 1z"/>
<path d="M3356 4764 c-4 -10 -1 -14 6 -12 15 5 23 28 10 28 -5 0 -13 -7 -16
-16z"/>
<path d="M3535 4770 c-3 -5 -1 -10 4 -10 6 0 11 5 11 10 0 6 -2 10 -4 10 -3 0
-8 -4 -11 -10z"/>
<path d="M4171 4764 c0 -11 3 -14 6 -6 3 7 2 16 -1 19 -3 4 -6 -2 -5 -13z"/>
<path d="M2971 4746 c-7 -9 -19 -16 -25 -16 -18 0 -39 -41 -27 -53 15 -15 38
-2 56 33 19 36 16 60 -4 36z"/>
<path d="M3410 4750 c0 -5 5 -10 11 -10 5 0 7 5 4 10 -3 6 -8 10 -11 10 -2 0
-4 -4 -4 -10z"/>
<path d="M3306 4735 c-3 -8 -1 -15 4 -15 6 0 10 7 10 15 0 8 -2 15 -4 15 -2 0
-6 -7 -10 -15z"/>
<path d="M2746 4731 c-3 -5 1 -15 10 -22 13 -10 17 -10 24 1 6 9 4 17 -3 22
-16 10 -25 10 -31 -1z"/>
<path d="M3974 4724 c3 -8 6 -18 6 -20 0 -2 5 -4 10 -4 16 0 11 27 -6 34 -12
5 -15 2 -10 -10z"/>
<path d="M2806 4714 c-9 -24 -2 -26 12 -4 7 11 8 20 3 20 -5 0 -12 -7 -15 -16z"/>
<path d="M2890 4714 c0 -14 3 -14 15 -4 8 7 15 14 15 16 0 2 -7 4 -15 4 -8 0
-15 -7 -15 -16z"/>
<path d="M3227 4709 c-15 -20 -13 -49 3 -49 8 0 23 61 16 67 -2 2 -11 -6 -19
-18z"/>
<path d="M2868 4684 c-5 -4 -8 -16 -8 -28 0 -14 3 -17 11 -9 6 6 9 19 7 28 -1
9 -6 13 -10 9z"/>
<path d="M3290 4680 c0 -5 5 -12 10 -15 6 -3 10 -11 10 -16 0 -6 -5 -7 -11 -4
-14 10 -46 -21 -54 -53 -3 -14 -29 -70 -56 -125 -27 -55 -47 -102 -45 -105 8
-7 36 25 36 42 0 8 5 18 11 22 8 4 9 -3 4 -25 -4 -17 -4 -31 -1 -31 7 0 41 63
38 72 -1 4 5 5 13 2 9 -4 15 0 15 8 0 15 -26 18 -48 5 -8 -6 -10 -3 -6 7 3 9
10 16 15 16 5 0 9 6 9 13 0 7 5 18 11 24 15 15 39 -7 39 -36 0 -12 4 -21 8
-21 7 0 11 -20 13 -68 1 -13 -9 -43 -22 -66 -26 -49 -21 -88 8 -65 14 12 14
10 -2 -14 -10 -15 -24 -26 -31 -23 -16 6 -26 -36 -19 -81 2 -18 0 -33 -5 -33
-6 0 -10 7 -10 16 0 14 -3 14 -15 4 -9 -8 -12 -17 -7 -24 23 -29 20 -45 -13
-79 l-35 -36 4 31 c2 17 11 37 20 44 11 8 13 14 7 19 -6 3 -11 3 -11 0 0 -4
-12 2 -27 13 -25 18 -29 19 -53 4 -16 -11 -12 -4 13 19 33 33 52 70 27 54 -5
-3 -10 0 -10 7 -1 24 -59 -50 -71 -90 -10 -36 -9 -41 14 -64 19 -19 29 -23 42
-15 16 9 16 7 -1 -16 -10 -14 -21 -21 -22 -16 -2 6 -11 4 -20 -3 -13 -11 -14
-10 -4 8 11 20 7 34 -9 34 -13 0 -48 -69 -37 -72 7 -3 3 -21 -12 -51 -19 -38
-21 -49 -10 -61 7 -9 10 -22 7 -30 -4 -10 -1 -13 7 -10 9 4 11 -4 8 -28 -5
-32 -6 -32 -12 -8 l-7 25 -10 -25 c-6 -14 -8 -31 -6 -37 3 -7 2 -20 -1 -30 -6
-14 -8 -14 -21 3 -20 27 -18 47 7 79 l21 27 -23 -7 c-21 -7 -22 -5 -16 21 l6
29 -14 -25 c-8 -14 -12 -36 -9 -49 4 -15 2 -22 -4 -18 -20 13 -93 -156 -93
-214 0 -29 -4 -39 -16 -39 -13 0 -15 -7 -11 -30 4 -16 2 -32 -3 -35 -5 -3 -14
-25 -21 -48 -6 -23 -20 -52 -31 -63 l-19 -22 48 2 c91 4 104 6 98 15 -10 18
14 22 43 7 26 -13 31 -13 47 2 10 9 15 11 11 4 -4 -7 0 -15 10 -19 12 -4 25 3
42 23 13 16 21 23 18 17 -4 -7 -3 -13 3 -13 6 0 8 -7 5 -15 -7 -18 13 -20 30
-2 17 17 9 37 -12 30 -9 -4 6 14 33 40 28 25 56 46 63 47 7 0 18 -12 24 -26
10 -20 9 -27 -2 -34 -11 -7 -8 -15 17 -39 20 -19 35 -26 39 -20 3 6 16 8 28 4
11 -4 35 -8 51 -10 17 -1 42 -6 58 -10 67 -18 123 18 80 51 -15 11 -15 13 -3
13 26 0 51 -24 38 -37 -18 -18 -2 -26 21 -10 12 8 18 18 14 21 -3 4 3 7 15 7
12 0 22 5 22 10 0 6 14 10 30 10 32 0 40 14 14 24 -30 11 -56 7 -51 -9 7 -17
-9 -30 -18 -15 -3 5 -15 10 -26 10 -21 0 -26 24 -7 36 7 4 8 3 4 -4 -11 -18
29 -15 44 3 7 8 17 12 24 8 6 -4 5 0 -2 9 -25 31 19 32 91 3 14 -6 16 -4 10
11 -6 18 -5 18 13 3 10 -9 25 -14 33 -11 9 3 11 0 6 -8 -6 -10 -1 -12 19 -8
20 4 24 2 16 -7 -7 -9 -6 -16 5 -25 12 -10 15 -10 15 3 0 11 5 14 16 10 14 -5
14 -3 -1 21 -14 21 -15 30 -6 35 13 8 19 67 8 78 -4 3 -7 -1 -7 -9 0 -12 -8
-15 -26 -13 -18 2 -28 -3 -31 -15 -4 -13 -38 -20 -50 -10 -2 2 -6 3 -10 4 -18
3 -47 25 -35 26 7 0 10 5 7 10 -4 6 -1 9 6 8 6 -2 15 10 20 26 5 17 15 34 24
38 22 13 19 45 -6 66 -12 9 -27 23 -35 30 -8 7 -14 9 -14 3 0 -5 5 -13 10 -16
6 -3 10 -16 9 -28 0 -18 -3 -16 -15 11 -8 18 -12 38 -8 43 3 5 0 17 -8 26 -9
12 -10 15 0 9 7 -4 15 0 19 11 3 10 15 28 26 40 18 21 19 27 8 63 -7 23 -20
49 -30 59 -9 9 -15 23 -13 29 2 7 -22 38 -52 70 -51 53 -71 82 -47 67 18 -11
23 16 6 35 -13 14 -15 28 -10 63 6 40 2 54 -48 153 -30 60 -58 120 -62 134 -5
14 -16 45 -27 69 l-19 44 -27 -53 c-27 -51 -63 -76 -60 -42 3 40 -2 54 -18 48
-8 -3 -13 -2 -10 3 7 10 46 22 44 12 -2 -17 3 -31 11 -31 16 0 20 29 9 60 -7
22 -7 35 0 42 14 14 -5 55 -29 61 -11 3 -19 1 -19 -3z m36 -506 c-4 -14 -10
-23 -15 -20 -4 3 -3 22 3 41 12 39 22 21 12 -21z m26 -31 c-3 -16 -7 -22 -10
-15 -4 13 4 42 11 42 2 0 2 -12 -1 -27z m-42 -135 c0 -16 -3 -19 -11 -11 -6 6
-8 16 -5 22 11 17 16 13 16 -11z m-110 -68 c-13 -25 -73 -80 -79 -74 -3 2 1
10 7 16 14 14 16 28 3 28 -6 0 -21 -19 -35 -42 -32 -54 -34 -36 -3 23 20 37
29 44 57 46 19 2 38 10 43 19 14 24 20 9 7 -16z m-129 -17 c-12 -20 -14 -14
-5 12 4 9 9 14 11 11 3 -2 0 -13 -6 -23z m544 9 c-3 -3 -11 0 -18 7 -9 10 -8
11 6 5 10 -3 15 -9 12 -12z m-325 -72 c0 -5 -5 -10 -11 -10 -5 0 -7 5 -4 10 3
6 8 10 11 10 2 0 4 -4 4 -10z m-370 -181 c0 -6 -4 -7 -10 -4 -5 3 -10 11 -10
16 0 6 5 7 10 4 6 -3 10 -11 10 -16z m706 -54 c19 -19 14 -19 -22 0 -21 11
-24 15 -11 15 10 0 25 -7 33 -15z m-554 -214 c-6 -16 -42 -50 -52 -51 -3 0 -6
10 -7 21 -1 12 1 19 4 15 3 -3 12 2 19 12 16 23 45 25 36 3z m208 12 c0 -14
-35 -82 -43 -83 -4 0 -3 9 3 19 13 25 13 44 0 36 -17 -11 -11 7 8 21 19 15 32
18 32 7z m-433 -69 c-3 -3 -12 -4 -19 -1 -8 3 -5 6 6 6 11 1 17 -2 13 -5z"/>
<path d="M2898 4649 c8 -22 24 -27 30 -10 2 5 -6 15 -17 21 -18 9 -20 8 -13
-11z"/>
<path d="M3587 4653 c-4 -3 -7 -11 -7 -17 0 -6 5 -5 12 2 6 6 9 14 7 17 -3 3
-9 2 -12 -2z"/>
<path d="M4018 4624 c2 -14 9 -23 15 -21 19 6 19 25 -1 36 -17 9 -18 7 -14
-15z"/>
<path d="M3153 4605 c-3 -9 -3 -18 -1 -21 3 -3 8 4 11 16 6 23 -1 27 -10 5z"/>
<path d="M2900 4589 c0 -11 5 -17 10 -14 6 3 10 13 10 21 0 8 -4 14 -10 14 -5
0 -10 -9 -10 -21z"/>
<path d="M3890 4585 c0 -8 -6 -15 -13 -15 -7 0 -22 -7 -33 -15 -18 -15 -16
-15 26 -10 42 5 44 5 26 -10 -11 -8 -23 -15 -28 -15 -18 0 -6 -18 15 -23 12
-2 29 -7 37 -11 8 -3 21 -2 29 3 11 7 11 15 1 45 -17 53 -60 89 -60 51z"/>
<path d="M3665 4580 c-3 -5 -2 -10 4 -10 5 0 13 5 16 10 3 6 2 10 -4 10 -5 0
-13 -4 -16 -10z"/>
<path d="M2852 4534 c-25 -17 -30 -44 -8 -44 8 0 22 7 30 16 17 16 22 44 8 44
-4 0 -18 -7 -30 -16z"/>
<path d="M3025 4540 c-3 -5 -1 -10 4 -10 6 0 11 5 11 10 0 6 -2 10 -4 10 -3 0
-8 -4 -11 -10z"/>
<path d="M3060 4529 c0 -5 5 -7 10 -4 6 3 10 8 10 11 0 2 -4 4 -10 4 -5 0 -10
-5 -10 -11z"/>
<path d="M2985 4492 c3 -7 5 -23 5 -33 0 -16 4 -19 21 -14 16 5 19 4 14 -5 -5
-9 -4 -11 4 -6 6 4 9 11 6 15 -2 5 2 17 10 27 22 29 18 33 -25 31 -30 -1 -39
-5 -35 -15z"/>
<path d="M3650 4453 c0 -20 3 -24 9 -14 5 8 16 11 25 8 8 -3 18 -2 21 3 4 6
-3 10 -14 10 -12 0 -21 5 -21 10 0 6 -4 10 -10 10 -5 0 -10 -12 -10 -27z"/>
<path d="M3834 4463 c-16 -17 -16 -18 -1 -21 9 -2 17 -8 17 -13 0 -5 9 -9 19
-9 11 0 27 -7 36 -17 14 -14 18 -14 26 -2 15 24 10 30 -18 23 -25 -7 -27 -6
-14 10 12 14 12 18 -5 31 -25 19 -39 19 -60 -2z"/>
<path d="M2821 4461 c-9 -6 -11 -16 -6 -31 l7 -23 14 24 c21 38 16 49 -15 30z"/>
<path d="M2692 4448 c-7 -7 -12 -19 -12 -27 0 -14 15 -7 15 7 0 4 4 13 8 20
10 15 5 16 -11 0z"/>
<path d="M3955 4451 c-3 -5 -2 -12 3 -15 5 -3 9 1 9 9 0 17 -3 19 -12 6z"/>
<path d="M2986 4422 c-11 -19 -17 -72 -8 -72 17 0 42 30 42 50 0 18 -26 35
-34 22z"/>
<path d="M3240 4415 c-8 -9 -8 -15 -2 -15 12 0 26 19 19 26 -2 2 -10 -2 -17
-11z"/>
<path d="M3680 4425 c0 -2 9 -9 20 -15 16 -9 20 -8 20 5 0 8 -9 15 -20 15 -11
0 -20 -2 -20 -5z"/>
<path d="M3050 4401 c0 -12 5 -21 10 -21 6 0 10 6 10 14 0 8 -4 18 -10 21 -5
3 -10 -3 -10 -14z"/>
<path d="M3585 4400 c3 -5 8 -10 11 -10 2 0 4 5 4 10 0 6 -5 10 -11 10 -5 0
-7 -4 -4 -10z"/>
<path d="M3747 4399 c7 -7 15 -10 18 -7 3 3 -2 9 -12 12 -14 6 -15 5 -6 -5z"/>
<path d="M3833 4393 c9 -2 23 -2 30 0 6 3 -1 5 -18 5 -16 0 -22 -2 -12 -5z"/>
<path d="M3946 4392 c-2 -4 -7 -24 -11 -45 -6 -30 -4 -37 9 -37 9 0 16 -8 16
-19 0 -30 39 -22 56 11 16 32 12 48 -14 48 -24 1 -55 27 -47 39 3 6 4 11 1 11
-3 0 -7 -3 -10 -8z"/>
<path d="M4100 4387 c0 -18 36 -68 43 -60 16 16 6 50 -18 61 -19 9 -25 9 -25
-1z"/>
<path d="M3788 4351 c12 -12 22 -33 22 -46 0 -14 3 -25 6 -25 16 0 44 23 44
36 0 8 7 14 16 12 10 -2 19 2 21 8 2 7 -11 14 -29 17 -18 3 -49 9 -68 13 l-35
6 23 -21z"/>
<path d="M2872 4308 c-13 -28 -22 -51 -20 -53 9 -10 37 26 46 58 15 55 0 52
-26 -5z"/>
<path d="M3686 4345 c4 -8 10 -15 15 -15 4 0 6 7 3 15 -4 8 -10 15 -15 15 -4
0 -6 -7 -3 -15z"/>
<path d="M3750 4335 c0 -8 -9 -15 -20 -15 -23 0 -26 -13 -7 -28 9 -8 20 -8 37
1 32 16 36 33 11 47 -17 9 -21 8 -21 -5z"/>
<path d="M2935 4310 c-3 -11 -3 -25 0 -31 4 -6 -2 -19 -14 -30 -22 -20 -29
-59 -11 -59 6 0 10 -5 10 -11 0 -8 -4 -9 -13 0 -17 13 -27 5 -27 -23 0 -12 -9
-27 -20 -34 -11 -7 -20 -21 -20 -32 0 -21 -26 -69 -45 -82 -6 -5 -5 -8 4 -8 7
0 11 -6 7 -15 -3 -8 -1 -15 3 -15 5 0 7 -10 4 -21 -5 -19 -4 -20 16 -10 11 7
21 17 21 24 0 7 14 25 30 41 35 34 38 51 10 43 -27 -7 -25 5 5 41 14 17 25 38
25 48 1 26 24 111 33 120 10 11 9 62 -2 69 -5 3 -12 -4 -16 -15z m-95 -331 c0
-11 -4 -18 -10 -14 -5 3 -7 12 -3 20 7 21 13 19 13 -6z"/>
<path d="M2993 4314 c-7 -18 11 -39 26 -30 17 11 13 46 -4 46 -9 0 -18 -7 -22
-16z"/>
<path d="M4155 4280 c3 -5 8 -10 11 -10 2 0 4 5 4 10 0 6 -5 10 -11 10 -5 0
-7 -4 -4 -10z"/>
<path d="M3112 4251 c-12 -35 1 -42 19 -10 7 14 7 25 1 31 -6 6 -13 -1 -20
-21z"/>
<path d="M3220 4258 c0 -9 -7 -21 -15 -28 -8 -7 -15 -19 -15 -27 0 -12 3 -13
14 -4 15 13 30 60 21 69 -3 3 -5 -2 -5 -10z"/>
<path d="M3950 4239 c-16 -29 -9 -30 20 -3 20 19 21 24 8 24 -10 0 -22 -9 -28
-21z"/>
<path d="M2856 4204 c-3 -9 -6 -23 -6 -32 1 -12 5 -10 15 8 8 14 14 28 15 33
0 13 -18 7 -24 -9z"/>
<path d="M2975 4190 c-3 -5 -2 -10 4 -10 5 0 13 5 16 10 3 6 2 10 -4 10 -5 0
-13 -4 -16 -10z"/>
<path d="M3845 4180 c-3 -5 -2 -10 4 -10 5 0 13 5 16 10 3 6 2 10 -4 10 -5 0
-13 -4 -16 -10z"/>
<path d="M3159 4163 c-27 -31 -28 -39 -7 -40 12 -1 33 7 47 19 14 11 19 19 11
16 -8 -3 -20 2 -25 9 -9 12 -13 11 -26 -4z"/>
<path d="M3735 4160 c-7 -12 2 -12 30 0 19 8 19 9 -2 9 -12 1 -25 -3 -28 -9z"/>
<path d="M3828 4146 c-10 -7 -15 -16 -11 -19 10 -11 25 -8 18 3 -3 6 3 10 14
10 12 0 21 5 21 10 0 14 -22 12 -42 -4z"/>
<path d="M3986 4151 c-3 -5 0 -14 8 -20 8 -7 12 -21 9 -32 -3 -11 2 -40 12
-65 13 -34 14 -49 6 -57 -13 -13 -15 -97 -3 -97 5 0 9 -8 9 -17 -1 -10 0 -33
1 -51 2 -30 4 -31 22 -20 14 9 20 24 20 52 0 31 3 36 13 27 11 -8 16 0 25 40
11 46 16 136 5 97 -5 -21 -14 -23 -31 -6 -8 8 -13 5 -20 -13 -23 -60 -24 -52
-7 39 5 23 1 30 -19 40 -19 8 -23 16 -19 34 4 13 11 26 16 29 5 4 6 12 3 18
-9 13 -43 15 -50 2z"/>
<path d="M3730 4130 c-11 -7 -7 -10 18 -10 17 0 32 5 32 10 0 13 -30 13 -50 0z"/>
<path d="M4226 4127 c3 -10 9 -15 12 -12 3 3 0 11 -7 18 -10 9 -11 8 -5 -6z"/>
<path d="M3790 4110 c0 -13 7 -20 20 -20 11 0 20 1 20 3 0 1 -9 10 -20 20 -19
16 -20 16 -20 -3z"/>
<path d="M3955 4114 c-22 -17 -39 -18 -29 -3 4 7 -1 10 -11 7 -10 -1 -20 -10
-22 -18 -4 -12 -3 -12 5 -2 6 9 12 -4 20 -44 7 -32 12 -68 12 -80 0 -14 8 -25
20 -29 11 -3 20 -15 20 -25 0 -13 5 -17 15 -14 8 4 15 13 15 21 0 8 -4 12 -8
9 -5 -3 -7 17 -4 44 3 36 0 57 -12 75 -10 15 -15 32 -12 38 3 9 5 9 5 0 2 -21
21 -15 21 6 0 27 -12 32 -35 15z"/>
<path d="M4438 4113 c-23 -6 -23 -15 1 -42 16 -18 20 -19 25 -6 3 10 2 13 -5
10 -6 -4 -7 3 -3 19 3 14 5 25 3 25 -2 -1 -12 -3 -21 -6z"/>
<path d="M3757 4103 c-4 -3 -7 -11 -7 -17 0 -6 5 -5 12 2 6 6 9 14 7 17 -3 3
-9 2 -12 -2z"/>
<path d="M2787 4083 c-4 -3 -7 -11 -7 -17 0 -6 5 -5 12 2 6 6 9 14 7 17 -3 3
-9 2 -12 -2z"/>
<path d="M3570 4072 c0 -5 7 -15 15 -22 8 -7 15 -8 15 -2 0 5 -7 15 -15 22 -8
7 -15 8 -15 2z"/>
<path d="M4330 4043 c1 -13 29 -59 30 -48 0 21 -13 55 -21 55 -5 0 -9 -3 -9
-7z"/>
<path d="M3820 4028 c0 -24 11 -48 22 -48 5 0 6 10 3 23 -10 30 -25 46 -25 25z"/>
<path d="M3883 3991 c-7 -19 -5 -28 11 -47 23 -26 44 -16 27 13 -6 10 -11 14
-12 8 -1 -5 -5 4 -9 20 -7 30 -7 30 -17 6z"/>
<path d="M4472 3998 c-16 -16 -15 -28 3 -28 8 0 15 -5 15 -12 0 -6 2 -9 5 -7
2 3 1 17 -3 32 -6 22 -10 25 -20 15z"/>
<path d="M2436 3992 c-3 -5 1 -9 9 -9 8 0 15 4 15 9 0 4 -4 8 -9 8 -6 0 -12
-4 -15 -8z"/>
<path d="M4280 3981 c0 -5 5 -13 10 -16 6 -3 10 -2 10 4 0 5 -4 13 -10 16 -5
3 -10 2 -10 -4z"/>
<path d="M4314 3957 c3 -20 9 -44 14 -53 8 -14 10 -14 21 0 10 12 8 22 -13 53
l-26 38 4 -38z"/>
<path d="M2896 3971 c-4 -7 -5 -15 -2 -18 9 -9 19 4 14 18 -4 11 -6 11 -12 0z"/>
<path d="M4131 3944 c0 -11 3 -14 6 -6 3 7 2 16 -1 19 -3 4 -6 -2 -5 -13z"/>
<path d="M3870 3921 c0 -12 5 -21 10 -21 6 0 10 6 10 14 0 8 -4 18 -10 21 -5
3 -10 -3 -10 -14z"/>
<path d="M4390 3931 c0 -11 31 -24 39 -16 3 3 -1 10 -9 15 -19 12 -30 12 -30
1z"/>
<path d="M2838 3868 c-21 -24 -38 -51 -38 -60 0 -16 2 -16 30 0 23 13 28 22
23 39 -3 13 -1 23 5 23 5 0 12 9 15 20 3 11 4 20 4 20 -1 0 -19 -19 -39 -42z"/>
<path d="M3915 3888 c15 -46 18 -91 6 -84 -6 4 -11 18 -11 32 0 13 -5 24 -11
24 -7 0 -9 -10 -5 -27 4 -16 7 -36 7 -45 0 -10 5 -21 11 -24 7 -5 9 -1 5 9 -4
11 -1 17 8 17 8 0 15 7 15 15 0 23 17 18 24 -7 7 -28 56 -55 56 -31 0 8 -5 11
-12 7 -8 -5 -9 -2 -5 9 4 10 10 25 14 34 5 12 2 15 -10 10 -11 -4 -17 -1 -17
8 0 8 -3 15 -7 15 -5 0 -16 14 -25 30 -21 36 -54 42 -43 8z"/>
<path d="M2750 3874 c0 -8 5 -12 10 -9 6 4 8 11 5 16 -9 14 -15 11 -15 -7z"/>
<path d="M4355 3880 c-4 -6 -11 -7 -17 -4 -8 5 -9 1 -4 -12 5 -10 10 -28 13
-39 12 -48 13 -50 29 -34 12 12 13 21 4 43 -5 15 -8 31 -5 36 3 5 1 11 -4 14
-5 4 -12 2 -16 -4z"/>
<path d="M3862 3868 c-17 -17 -15 -38 3 -38 9 0 15 9 15 25 0 29 -1 30 -18 13z"/>
<path d="M4090 3816 c0 -9 5 -16 10 -16 6 0 10 4 10 9 0 6 -4 13 -10 16 -5 3
-10 -1 -10 -9z"/>
<path d="M2707 3814 c-14 -14 -7 -43 15 -64 l22 -20 11 27 c15 36 8 68 -11 52
-8 -6 -11 -15 -8 -20 3 -5 3 -9 -1 -9 -3 0 -9 9 -13 20 -4 12 -11 18 -15 14z"/>
<path d="M4410 3800 c0 -5 5 -10 10 -10 6 0 10 5 10 10 0 6 -4 10 -10 10 -5 0
-10 -4 -10 -10z"/>
<path d="M4078 3765 c3 -16 11 -25 22 -25 10 0 21 -6 23 -12 3 -8 6 -9 6 -2 1
14 -37 64 -48 64 -5 0 -6 -11 -3 -25z"/>
<path d="M4056 3761 c-9 -13 8 -37 35 -52 15 -7 17 -6 13 6 -4 8 -10 15 -15
15 -5 0 -13 10 -18 22 -5 15 -10 18 -15 9z"/>
<path d="M3950 3727 c0 -17 -2 -19 -10 -7 -10 16 -15 13 -23 -15 -8 -27 29
-76 42 -56 5 7 8 28 7 46 -1 18 2 31 6 29 5 -3 8 -1 8 4 0 6 -7 12 -15 16 -11
4 -15 -1 -15 -17z"/>
<path d="M4395 3727 c-4 -10 -5 -21 -1 -24 10 -10 18 4 13 24 -4 17 -4 17 -12
0z"/>
<path d="M4508 3735 c-8 -8 3 -55 13 -55 5 0 6 12 3 28 -8 32 -9 34 -16 27z"/>
<path d="M4147 3710 c5 -20 15 -25 26 -13 8 7 -11 33 -23 33 -5 0 -6 -9 -3
-20z"/>
<path d="M2610 3710 c0 -5 5 -10 11 -10 5 0 7 5 4 10 -3 6 -8 10 -11 10 -2 0
-4 -4 -4 -10z"/>
<path d="M4416 3683 c-4 -13 -3 -30 2 -39 13 -24 22 -2 13 32 -7 28 -8 28 -15
7z"/>
<path d="M4020 3680 c0 -5 5 -10 10 -10 6 0 10 5 10 10 0 6 -4 10 -10 10 -5 0
-10 -4 -10 -10z"/>
<path d="M4070 3685 c0 -2 8 -18 19 -35 18 -31 18 -31 23 -7 3 16 -1 28 -14
36 -19 12 -28 14 -28 6z"/>
<path d="M2445 3647 c-23 -26 -26 -37 -11 -31 22 8 20 -2 -5 -27 -11 -11 -17
-24 -13 -27 3 -4 9 -1 11 6 3 6 10 12 16 12 6 0 -1 -13 -16 -28 -49 -51 -59
-126 -14 -109 22 8 58 116 56 170 -2 49 -7 55 -24 34z"/>
<path d="M4240 3623 c0 -5 5 -15 10 -23 8 -12 10 -11 10 8 0 12 -4 22 -10 22
-5 0 -10 -3 -10 -7z"/>
<path d="M3940 3613 c0 -4 5 -15 10 -23 8 -13 10 -13 10 2 0 9 -4 20 -10 23
-5 3 -10 3 -10 -2z"/>
<path d="M2590 3590 c0 -12 5 -18 10 -15 16 10 12 -22 -5 -39 -8 -8 -15 -21
-15 -28 0 -7 10 2 21 20 12 17 25 32 31 32 5 0 8 10 6 23 -4 31 -48 38 -48 7z"/>
<path d="M4137 3586 c3 -13 -1 -27 -8 -31 -8 -6 -11 -4 -7 7 4 8 3 20 -2 27
-5 10 -13 7 -29 -10 -14 -16 -21 -18 -21 -8 0 12 -2 12 -10 -1 -7 -12 -12 -12
-28 4 -19 17 -21 17 -30 0 -12 -21 8 -68 33 -77 18 -7 20 -40 4 -70 -10 -18
-6 -16 17 6 18 18 28 39 28 55 -1 23 0 23 3 4 3 -13 15 -28 29 -34 13 -6 24
-15 24 -20 0 -4 7 -8 15 -8 10 0 13 10 11 35 -1 24 1 32 8 25 17 -17 26 -11
26 15 0 13 -12 36 -27 51 -16 15 -22 23 -14 19 11 -6 13 -4 8 9 -4 10 -7 20
-7 22 0 2 -6 4 -14 4 -9 0 -12 -8 -9 -24z m-87 -67 c0 -6 -4 -7 -10 -4 -5 3
-10 11 -10 16 0 6 5 7 10 4 6 -3 10 -11 10 -16z"/>
<path d="M4289 3605 c-1 -5 -1 -13 0 -17 0 -5 -6 -8 -14 -8 -8 0 -15 -8 -16
-17 0 -14 -2 -13 -9 5 -5 12 -12 22 -15 22 -11 0 -4 -39 10 -54 18 -18 19 -26
2 -26 -7 0 -18 -13 -24 -29 -9 -25 -8 -32 8 -47 21 -19 22 -16 19 36 -2 46 12
31 16 -17 2 -24 11 -44 26 -55 29 -22 39 -23 31 -1 -4 11 -3 14 5 9 9 -5 9 -1
3 17 -6 14 -7 29 -3 33 4 5 -3 1 -14 -9 -22 -18 -22 -18 -20 7 0 14 5 26 9 26
5 0 5 5 2 10 -4 6 0 22 9 35 9 13 16 28 16 32 -1 13 -39 59 -41 48z"/>
<path d="M2383 3538 c-12 -16 -24 -48 -18 -48 2 0 11 14 20 30 16 31 15 40 -2
18z"/>
<path d="M3830 3472 c0 -19 5 -32 13 -32 8 0 9 -3 1 -8 -19 -12 -22 -47 -5
-62 22 -21 65 -24 57 -4 -3 9 -6 18 -6 20 0 2 -9 4 -20 4 -22 0 -27 16 -8 22
9 3 9 13 -2 39 -20 50 -30 57 -30 21z"/>
<path d="M4490 3489 c0 -5 5 -7 10 -4 6 3 10 8 10 11 0 2 -4 4 -10 4 -5 0 -10
-5 -10 -11z"/>
<path d="M3991 3481 c-11 -7 -10 -11 7 -20 17 -9 19 -8 15 9 -3 11 -6 20 -7
20 0 0 -7 -4 -15 -9z"/>
<path d="M2334 3455 c-16 -12 -16 -14 -3 -15 9 0 22 7 29 15 16 19 0 19 -26 0z"/>
<path d="M4093 3423 c3 -16 8 -39 12 -53 l6 -25 -14 24 -14 23 -6 -31 c-5 -21
-11 -30 -18 -25 -8 4 -9 3 -5 -5 4 -7 15 -11 24 -10 32 3 78 -3 60 -8 -30 -8
-20 -20 25 -31 39 -10 40 -11 7 -8 -19 2 -43 6 -52 10 -14 7 -19 1 -24 -33 -4
-22 -10 -38 -15 -36 -4 3 -10 1 -14 -5 -3 -5 1 -10 11 -10 13 0 14 -3 4 -15
-10 -12 -10 -15 1 -15 10 0 10 -3 1 -12 -16 -16 -15 -46 2 -64 19 -18 23 -18
30 4 3 9 4 0 1 -20 -3 -30 1 -40 20 -52 22 -14 25 -13 79 41 31 31 56 60 56
64 0 14 -28 11 -34 -3 -8 -21 -46 31 -46 63 0 20 -5 29 -16 29 -8 0 -13 4 -9
10 3 5 12 7 20 3 9 -3 15 1 15 10 0 8 7 20 15 27 21 17 19 25 -11 39 -15 6
-24 14 -21 18 4 3 14 0 23 -8 10 -8 19 -13 21 -12 15 9 33 35 39 57 5 22 3 28
-14 33 -12 3 -29 17 -38 31 -16 25 -18 25 -25 7 -4 -11 -5 -33 -3 -50 4 -28 4
-29 -7 -7 -7 12 -16 22 -22 22 -5 0 -4 -6 2 -14 9 -10 8 -16 -4 -26 -13 -11
-14 -10 -10 3 4 10 -1 17 -13 21 -23 8 -39 39 -23 44 13 4 4 22 -11 22 -6 0
-8 -12 -5 -27z"/>
<path d="M2357 3433 c-12 -11 -8 -23 7 -17 10 4 12 -2 9 -20 -7 -34 14 -34 29
-1 6 14 9 27 7 29 -10 9 -46 16 -52 9z"/>
<path d="M3982 3428 c-7 -7 -12 -23 -12 -36 0 -13 -4 -20 -10 -17 -15 9 -12
-15 4 -31 13 -12 15 -12 21 5 3 11 12 21 19 24 9 4 12 15 9 31 -6 32 -16 39
-31 24z"/>
<path d="M2521 3409 c-28 -23 -25 -30 7 -18 12 5 22 15 22 24 0 19 0 19 -29
-6z"/>
<path d="M3137 3406 c-23 -18 -21 -23 8 -23 30 0 40 11 22 25 -8 7 -17 6 -30
-2z"/>
<path d="M2740 3365 c-7 -14 -10 -28 -7 -31 4 -4 11 6 17 21 6 15 9 29 7 31
-2 2 -10 -7 -17 -21z"/>
<path d="M3650 3369 c0 -5 5 -7 10 -4 6 3 10 8 10 11 0 2 -4 4 -10 4 -5 0 -10
-5 -10 -11z"/>
<path d="M3140 3360 c0 -5 5 -10 10 -10 6 0 10 5 10 10 0 6 -4 10 -10 10 -5 0
-10 -4 -10 -10z"/>
<path d="M4270 3351 c0 -5 11 -11 25 -13 28 -6 34 6 9 16 -22 8 -34 7 -34 -3z"/>
<path d="M3635 3340 c-19 -8 -19 -9 3 -9 12 -1 22 4 22 9 0 6 -1 10 -2 9 -2 0
-12 -4 -23 -9z"/>
<path d="M3670 3325 c0 -10 10 -15 30 -15 22 0 28 4 24 15 -4 8 -17 15 -30 15
-15 0 -24 -6 -24 -15z"/>
<path d="M2490 3305 c0 -14 5 -25 10 -25 6 0 10 11 10 25 0 14 -4 25 -10 25
-5 0 -10 -11 -10 -25z"/>
<path d="M3180 3320 c-12 -8 -10 -10 8 -10 13 0 20 4 17 10 -7 12 -6 12 -25 0z"/>
<path d="M4026 3315 c4 -8 8 -15 10 -15 2 0 4 7 4 15 0 8 -4 15 -10 15 -5 0
-7 -7 -4 -15z"/>
<path d="M3940 3311 c0 -5 14 -20 31 -32 26 -18 33 -19 40 -8 11 17 11 21 1
34 -10 13 -72 19 -72 6z"/>
<path d="M2280 3306 c0 -2 7 -7 16 -10 8 -3 12 -2 9 4 -6 10 -25 14 -25 6z"/>
<path d="M4250 3282 c0 -25 -3 -30 -16 -25 -14 5 -16 1 -12 -20 4 -19 1 -27
-9 -27 -8 0 -13 -7 -11 -16 2 -8 7 -15 11 -14 5 1 14 -6 21 -15 8 -12 27 -17
61 -17 47 0 48 -1 26 -13 l-24 -13 29 -15 c19 -11 23 -16 12 -17 -21 0 -29
-12 -19 -29 6 -9 17 -6 46 13 21 14 42 26 48 26 5 0 4 7 -3 15 -7 8 -16 15
-21 15 -14 0 -79 70 -79 85 0 8 -8 20 -18 27 -10 7 -22 19 -26 26 -7 12 -4 12
14 2 30 -16 23 7 -8 28 -21 14 -22 13 -22 -16z"/>
<path d="M4315 3260 c-4 -6 5 -10 19 -10 14 0 26 5 26 10 0 6 -9 10 -19 10
-11 0 -23 -4 -26 -10z"/>
<path d="M3140 3249 c0 -5 -4 -8 -9 -5 -16 10 -62 -18 -57 -36 2 -10 1 -17 -3
-16 -25 3 -51 -4 -46 -12 3 -6 -1 -7 -9 -4 -9 3 -16 10 -16 16 0 5 5 6 10 3 6
-3 10 -1 10 5 0 7 -7 9 -17 6 -9 -4 -20 -1 -24 6 -4 7 -11 9 -15 6 -3 -4 3
-20 15 -37 12 -16 18 -36 15 -45 -5 -12 -2 -15 10 -10 9 3 16 10 16 15 0 5 4
9 9 9 5 0 7 -15 4 -32 -4 -26 -2 -31 8 -21 9 9 16 10 26 2 9 -8 13 -8 13 0 0
7 9 9 25 5 19 -5 25 -2 25 10 0 10 9 16 25 16 14 0 25 5 25 11 0 17 28 41 32
27 3 -8 10 -7 28 2 20 11 25 10 36 -5 7 -9 17 -14 23 -10 6 3 17 3 24 -2 6 -4
29 -8 50 -9 l38 -1 -32 33 c-18 19 -41 34 -50 34 -10 0 -21 5 -24 10 -3 6 3
10 14 10 11 0 23 5 27 11 4 7 -12 9 -52 6 -33 -3 -61 -6 -63 -6 -2 -1 2 -8 9
-16 7 -8 24 -15 38 -15 20 0 23 -3 14 -12 -9 -9 -24 -3 -66 25 -56 37 -86 46
-86 26z m-10 -93 c0 -2 -8 -10 -17 -17 -16 -13 -17 -12 -4 4 13 16 21 21 21
13z"/>
<path d="M2750 3243 c0 -2 7 -11 15 -20 14 -14 14 -17 -2 -30 -16 -13 -16 -14
-1 -9 10 3 18 -1 21 -12 3 -14 6 -12 15 8 6 14 11 18 11 10 1 -12 4 -11 19 3
15 15 15 19 2 27 -9 5 -19 5 -27 -2 -10 -8 -13 -7 -13 5 0 8 -9 17 -20 20 -11
3 -20 3 -20 0z"/>
<path d="M2890 3241 c0 -6 4 -13 10 -16 6 -3 7 1 4 9 -7 18 -14 21 -14 7z"/>
<path d="M3362 3237 c-7 -8 -5 -19 7 -33 13 -16 25 -20 53 -16 l37 4 -22 24
c-26 28 -61 38 -75 21z"/>
<path d="M3452 3234 c10 -10 20 -15 24 -12 3 4 -5 12 -18 18 -22 12 -22 12 -6
-6z"/>
<path d="M3803 3224 c0 -20 3 -25 18 -21 11 3 19 0 19 -6 0 -8 3 -8 11 0 18
18 1 53 -25 53 -19 0 -23 -6 -23 -26z"/>
<path d="M2600 3229 c0 -5 5 -7 10 -4 6 3 10 8 10 11 0 2 -4 4 -10 4 -5 0 -10
-5 -10 -11z"/>
<path d="M3575 3232 c-22 -7 -25 -19 -11 -40 7 -11 4 -11 -12 -1 -17 11 -24
10 -38 -2 -9 -8 -25 -13 -36 -11 -10 2 -18 -2 -18 -7 0 -13 15 -14 57 -2 20 6
35 6 38 0 4 -5 19 -9 34 -9 15 0 36 -7 47 -16 10 -8 14 -13 8 -10 -15 7 -74
-13 -74 -25 0 -13 35 -6 56 11 9 8 19 14 21 13 1 -2 3 -1 3 2 0 3 0 12 0 20 0
9 -10 20 -22 25 -13 5 -16 9 -8 9 10 1 7 6 -8 17 -12 8 -20 20 -17 25 4 5 5 9
3 8 -2 -1 -12 -4 -23 -7z"/>
<path d="M4335 3230 c3 -5 10 -10 16 -10 5 0 9 5 9 10 0 6 -7 10 -16 10 -8 0
-12 -4 -9 -10z"/>
<path d="M3778 3223 c7 -3 16 -2 19 1 4 3 -2 6 -13 5 -11 0 -14 -3 -6 -6z"/>
<path d="M3890 3206 c0 -20 13 -27 29 -16 11 6 9 10 -8 19 -17 10 -21 9 -21
-3z"/>
<path d="M2636 3194 c-4 -11 -1 -14 11 -12 9 2 18 9 21 16 6 18 -25 15 -32 -4z"/>
<path d="M4021 3194 c0 -11 3 -14 6 -6 3 7 2 16 -1 19 -3 4 -6 -2 -5 -13z"/>
<path d="M2880 3174 c0 -9 8 -23 18 -31 15 -13 15 -14 0 -9 -9 2 -22 -2 -28
-10 -10 -11 -10 -14 -1 -14 7 0 9 -5 6 -10 -4 -6 5 -5 19 2 15 6 26 20 27 32
0 12 3 16 5 9 3 -7 12 -9 20 -6 19 7 10 18 -28 37 -38 20 -38 20 -38 0z"/>
<path d="M2955 3180 c3 -5 8 -10 11 -10 2 0 4 5 4 10 0 6 -5 10 -11 10 -5 0
-7 -4 -4 -10z"/>
<path d="M3662 3167 c11 -21 30 -18 33 4 2 9 -6 14 -20 14 -19 0 -21 -3 -13
-18z"/>
<path d="M3792 3173 c-20 -4 -21 -7 -10 -21 7 -9 8 -13 2 -9 -8 4 -13 -3 -16
-21 -3 -24 -1 -27 29 -29 18 -1 31 2 28 7 -3 5 5 16 17 24 18 13 19 16 5 16
-10 0 -17 8 -17 20 0 11 -3 19 -7 19 -5 -1 -18 -4 -31 -6z"/>
<path d="M3930 3171 c0 -5 -6 -9 -12 -8 -31 1 -48 -4 -48 -13 0 -5 7 -10 15
-10 10 0 15 -10 15 -26 0 -21 3 -24 13 -15 8 6 17 8 20 4 4 -3 6 12 5 35 -1
23 -3 42 -5 42 -1 0 -3 -4 -3 -9z"/>
<path d="M4392 3164 c9 -9 21 -13 27 -9 16 10 3 25 -22 25 -20 0 -20 -1 -5
-16z"/>
<path d="M2305 3159 c-4 -6 -5 -12 -2 -15 2 -3 7 2 10 11 7 17 1 20 -8 4z"/>
<path d="M3240 3150 c0 -5 7 -10 15 -10 8 0 15 5 15 10 0 6 -7 10 -15 10 -8 0
-15 -4 -15 -10z"/>
<path d="M3500 3151 c-8 -6 -18 -7 -22 -5 -4 3 -8 -2 -8 -10 0 -10 9 -16 24
-16 13 0 33 -3 43 -7 10 -3 14 -2 10 2 -4 5 3 15 15 22 23 12 23 12 1 13 -12
0 -27 2 -35 5 -7 3 -20 1 -28 -4z"/>
<path d="M3715 3150 c-3 -6 1 -7 9 -4 18 7 21 14 7 14 -6 0 -13 -4 -16 -10z"/>
<path d="M2500 3130 c0 -5 10 -10 23 -10 18 0 19 2 7 10 -19 13 -30 13 -30 0z"/>
<path d="M3310 3120 c0 -5 7 -10 16 -10 8 0 12 5 9 10 -3 6 -10 10 -16 10 -5
0 -9 -4 -9 -10z"/>
<path d="M2396 3104 c-3 -9 -6 -26 -6 -38 0 -12 -6 -31 -14 -41 -12 -17 -12
-24 2 -50 14 -26 17 -27 20 -10 2 10 -1 21 -7 23 -7 2 -6 11 4 25 18 29 29 93
17 101 -5 3 -13 -1 -16 -10z"/>
<path d="M2470 3099 c0 -4 7 -9 15 -13 9 -3 15 0 15 8 0 7 -7 13 -15 13 -8 0
-15 -4 -15 -8z"/>
<path d="M4241 3075 c-13 -19 -21 -41 -18 -50 4 -9 -2 -19 -13 -25 -23 -13
-27 -40 -5 -40 8 0 15 -3 15 -7 0 -10 126 -10 135 -1 4 4 0 14 -9 23 -9 9 -16
23 -16 31 0 9 -7 14 -17 12 -14 -2 -18 4 -19 27 -1 17 3 36 8 43 6 6 9 12 7
13 -41 8 -46 6 -68 -26z m89 -100 c0 -9 -6 -12 -15 -9 -8 4 -15 10 -15 15 0 5
7 9 15 9 8 0 15 -7 15 -15z"/>
<path d="M2656 3077 c3 -10 9 -15 12 -12 3 3 0 11 -7 18 -10 9 -11 8 -5 -6z"/>
<path d="M4395 3060 c28 -12 37 -12 30 0 -3 6 -16 10 -28 9 -21 0 -21 -1 -2
-9z"/>
<path d="M4516 3037 c3 -10 9 -15 12 -12 3 3 0 11 -7 18 -10 9 -11 8 -5 -6z"/>
<path d="M3370 3033 c0 -5 10 -19 21 -33 l20 -25 -16 33 c-15 30 -25 41 -25
25z"/>
<path d="M3405 3030 c4 -6 11 -8 16 -5 14 9 11 15 -7 15 -8 0 -12 -5 -9 -10z"/>
<path d="M4380 3029 c0 -5 5 -7 10 -4 6 3 10 8 10 11 0 2 -4 4 -10 4 -5 0 -10
-5 -10 -11z"/>
<path d="M3704 3016 c17 -14 17 -16 4 -16 -9 0 -20 5 -23 10 -3 6 -14 10 -23
10 -14 0 -14 -2 -2 -14 8 -8 25 -17 36 -20 31 -9 40 20 11 34 -21 11 -21 11
-3 -4z"/>
<path d="M4420 3013 c-1 -21 -38 -66 -67 -81 -11 -6 -37 -8 -58 -5 -29 5 -36
3 -30 -7 5 -9 2 -10 -11 -6 -11 3 -26 1 -34 -4 -13 -8 -12 -10 4 -10 18 0 18
-1 3 -18 -28 -31 -19 -35 14 -8 31 26 49 33 49 18 0 -4 -5 -13 -12 -20 -9 -9
-9 -12 0 -12 7 0 11 -4 10 -9 -2 -5 6 -16 17 -25 20 -15 20 -15 -2 -9 -14 3
-23 1 -23 -6 0 -6 -4 -11 -10 -11 -5 0 -10 7 -10 15 0 8 -7 15 -15 15 -18 0
-20 -24 -2 -42 7 -7 16 -21 20 -30 3 -10 11 -18 17 -18 6 0 10 -6 8 -12 -8
-46 42 -85 67 -51 21 27 18 42 -10 49 -46 11 -26 28 31 27 6 0 9 8 7 18 -4 13
0 19 11 19 9 0 16 5 16 10 0 6 -4 10 -9 10 -5 0 -11 6 -14 13 -4 10 2 13 19 9
20 -4 24 0 24 22 0 29 -14 35 -24 10 -3 -8 -10 -12 -16 -9 -6 4 -8 11 -5 16 3
5 -1 6 -9 3 -9 -3 -16 -2 -16 4 0 13 24 22 57 22 16 0 27 -7 30 -20 3 -11 9
-20 15 -20 5 0 4 9 -2 20 -12 23 -6 40 16 40 23 0 16 28 -8 32 -17 2 -23 10
-24 28 -2 44 -4 50 -14 50 -5 0 -10 -8 -10 -17z"/>
<path d="M3978 2993 c7 -3 16 -2 19 1 4 3 -2 6 -13 5 -11 0 -14 -3 -6 -6z"/>
<path d="M4465 2980 c-3 -5 1 -10 9 -10 9 0 16 5 16 10 0 6 -4 10 -9 10 -6 0
-13 -4 -16 -10z"/>
<path d="M3401 2954 c0 -11 3 -14 6 -6 3 7 2 16 -1 19 -3 4 -6 -2 -5 -13z"/>
<path d="M4523 2875 c-3 -9 -3 -18 0 -22 11 -10 57 7 57 22 0 20 -49 20 -57 0z"/>
<path d="M2301 2837 c-6 -8 -8 -17 -4 -20 3 -4 -3 -7 -15 -7 -12 0 -26 -9 -32
-19 -13 -25 -13 -34 0 -26 15 9 12 -49 -2 -64 -11 -10 -5 -12 29 -8 31 3 40 1
36 -10 -3 -7 -3 -13 0 -13 3 0 10 14 16 31 9 27 9 30 -4 19 -8 -6 -20 -10 -27
-8 -8 3 -2 11 14 22 22 14 26 23 22 46 -4 15 -1 31 5 34 6 4 11 12 11 18 0 6
-10 3 -22 -8 -13 -10 -17 -12 -10 -4 6 8 12 18 12 22 0 12 -16 9 -29 -5z"/>
<path d="M4140 2740 c0 -5 5 -10 11 -10 5 0 7 5 4 10 -3 6 -8 10 -11 10 -2 0
-4 -4 -4 -10z"/>
<path d="M4447 2733 c-12 -11 -8 -35 5 -27 7 5 9 0 6 -14 -8 -29 16 -35 46
-11 29 22 26 39 -5 39 -11 0 -17 5 -14 10 7 11 -28 14 -38 3z"/>
<path d="M4410 2685 c0 -15 -8 -29 -22 -36 -23 -12 -57 -49 -58 -61 0 -4 22
-6 50 -4 28 2 51 -1 53 -7 5 -15 78 36 74 53 -1 8 -16 18 -34 23 -21 6 -33 18
-37 33 -8 31 -26 31 -26 -1z"/>
<path d="M2223 2615 c2 -23 7 -31 25 -33 15 -2 22 2 22 12 0 9 -8 16 -19 16
-11 0 -22 8 -25 18 -2 9 -4 4 -3 -13z"/>
<path d="M4470 2575 c-19 -23 -8 -26 19 -4 16 13 18 19 8 19 -8 0 -20 -7 -27
-15z"/>
<path d="M2210 2565 c0 -8 7 -15 15 -15 8 0 15 4 15 9 0 5 -7 11 -15 15 -9 3
-15 0 -15 -9z"/>
<path d="M2185 2542 c-13 -14 -4 -42 15 -42 11 0 19 -3 19 -7 -1 -5 -1 -24 0
-43 2 -33 3 -32 22 24 10 33 17 61 14 64 -7 7 -63 10 -70 4z"/>
<path d="M2170 2402 c0 -23 4 -42 8 -42 11 0 10 65 0 76 -5 4 -8 -11 -8 -34z"/>
<path d="M4722 2404 c-7 -8 -8 -14 -3 -14 10 0 25 19 20 25 -2 1 -10 -3 -17
-11z"/>
<path d="M4629 2378 c-13 -18 -27 -34 -31 -36 -4 -2 -8 -8 -8 -13 0 -6 5 -7
10 -4 14 9 13 -8 -2 -23 -9 -9 -9 -12 0 -12 6 0 21 13 33 30 21 28 58 53 43
29 -4 -7 -2 -10 5 -8 7 3 12 8 11 13 -1 5 4 13 12 18 9 6 6 7 -9 3 -18 -5 -20
-2 -16 15 9 32 -22 24 -48 -12z"/>
<path d="M4596 2385 c-9 -26 -7 -32 5 -12 6 10 9 21 6 23 -2 3 -7 -2 -11 -11z"/>
<path d="M1943 2369 c-6 -6 -9 -19 -6 -28 4 -14 3 -14 -6 -1 -5 8 -11 12 -13
10 -11 -15 -37 -104 -33 -109 11 -10 50 44 67 92 17 46 13 58 -9 36z"/>
<path d="M2106 2324 c-4 -15 -2 -32 3 -37 8 -8 11 0 11 26 0 44 -5 47 -14 11z"/>
<path d="M4792 2335 c-25 -18 -31 -51 -7 -41 9 3 15 0 15 -9 0 -8 5 -15 10
-15 6 0 10 9 10 20 0 11 5 20 10 20 6 0 10 7 10 16 0 8 -4 13 -9 10 -5 -4 -11
-2 -13 4 -2 6 -12 4 -26 -5z"/>
<path d="M4666 2305 c-26 -24 -34 -49 -17 -60 5 -3 12 -1 16 5 4 6 10 8 15 5
5 -3 11 3 15 14 3 11 12 22 20 25 21 8 18 36 -4 36 -10 0 -30 -11 -45 -25z"/>
<path d="M4752 2290 c0 -14 2 -19 5 -12 2 6 2 18 0 25 -3 6 -5 1 -5 -13z"/>
<path d="M4832 2265 c-26 -27 -30 -44 -5 -24 9 8 24 13 35 11 21 -4 24 11 5
26 -9 8 -18 4 -35 -13z"/>
<path d="M4580 2261 c-12 -24 -13 -31 -1 -31 5 0 11 11 13 25 6 30 2 32 -12 6z"/>
<path d="M4710 2265 c-12 -15 -12 -19 5 -32 11 -8 19 -18 18 -22 -4 -16 34 -8
45 9 17 28 5 52 -18 40 -14 -8 -21 -6 -28 6 -8 14 -10 14 -22 -1z"/>
<path d="M2140 2243 c0 -5 5 -15 10 -23 8 -12 10 -11 10 8 0 12 -4 22 -10 22
-5 0 -10 -3 -10 -7z"/>
<path d="M2070 2219 c-7 -11 -9 -23 -6 -26 8 -9 36 17 36 33 0 21 -18 17 -30
-7z"/>
<path d="M4154 2231 c3 -5 15 -11 26 -14 17 -4 19 -3 9 9 -12 15 -44 20 -35 5z"/>
<path d="M2323 2215 c0 -8 4 -12 9 -9 5 3 6 10 3 15 -9 13 -12 11 -12 -6z"/>
<path d="M4549 2203 c-13 -16 -12 -17 4 -4 16 13 21 21 13 21 -2 0 -10 -8 -17
-17z"/>
<path d="M2123 2203 c-7 -2 -13 -13 -13 -23 0 -24 -20 -37 -21 -13 0 16 -1 16
-8 -2 -8 -19 3 -45 19 -45 5 0 12 15 15 33 4 17 12 38 17 45 11 13 10 13 -9 5z"/>
<path d="M4537 2153 c-18 -27 -24 -46 -20 -65 3 -18 1 -28 -6 -28 -10 0 -10
-46 -1 -57 2 -2 3 -7 4 -13 0 -5 10 -16 21 -24 11 -8 16 -18 12 -22 -4 -5 -12
-3 -16 4 -9 14 -57 42 -73 42 -5 0 -16 -6 -23 -14 -12 -11 -12 -16 0 -32 8
-11 15 -15 15 -11 0 4 10 2 23 -4 20 -11 21 -11 8 4 -8 10 -9 17 -3 17 6 0 14
-4 17 -10 11 -17 44 -11 85 15 22 14 40 28 40 31 0 4 -7 1 -15 -6 -23 -19 -17
2 10 35 18 21 25 25 25 14 0 -11 10 -18 28 -21 16 -2 29 1 29 6 0 6 3 21 7 34
7 20 5 22 -28 18 -20 -3 -45 -10 -56 -16 -11 -6 -20 -7 -20 -2 0 5 18 14 41
21 47 14 46 21 -4 26 -29 2 -37 -1 -46 -22 -6 -13 -8 -29 -5 -35 4 -7 2 -8 -4
-4 -23 14 -11 50 28 86 28 26 38 42 34 54 -6 15 -8 15 -30 1 -21 -14 -24 -14
-24 0 0 27 -27 16 -53 -22z m40 -30 c2 -6 -3 -18 -12 -26 -8 -9 -15 -20 -15
-26 0 -6 -5 -11 -10 -11 -6 0 -5 11 3 28 8 15 12 33 9 41 -3 8 1 12 9 9 7 -2
14 -9 16 -15z m-37 -77 c0 -3 -4 -8 -10 -11 -5 -3 -10 -1 -10 4 0 6 5 11 10
11 6 0 10 -2 10 -4z"/>
<path d="M4702 2170 c0 -14 2 -19 5 -12 2 6 2 18 0 25 -3 6 -5 1 -5 -13z"/>
<path d="M4759 2172 c0 -11 -2 -12 -6 -4 -6 14 -33 16 -33 2 0 -5 4 -10 8 -10
4 0 8 -10 9 -21 3 -33 16 -40 45 -27 39 19 42 52 6 66 -24 9 -28 8 -29 -6z"/>
<path d="M4179 2167 c15 -19 41 -23 41 -7 0 6 -4 10 -9 10 -5 0 -18 3 -28 7
-16 6 -16 5 -4 -10z"/>
<path d="M4340 2170 c0 -5 5 -10 10 -10 6 0 10 5 10 10 0 6 -4 10 -10 10 -5 0
-10 -4 -10 -10z"/>
<path d="M4870 2170 c0 -14 15 -19 29 -11 9 6 7 10 -8 14 -12 3 -21 1 -21 -3z"/>
<path d="M2011 2136 c-1 -29 2 -37 10 -29 8 8 8 19 1 40 -10 28 -10 28 -11
-11z"/>
<path d="M4291 2117 c-9 -12 -8 -16 5 -21 22 -8 28 -1 17 19 -8 14 -11 14 -22
2z"/>
<path d="M4665 2120 c-3 -5 -1 -10 4 -10 6 0 11 5 11 10 0 6 -2 10 -4 10 -3 0
-8 -4 -11 -10z"/>
<path d="M4914 2122 c-14 -9 -27 -91 -25 -156 0 -27 -4 -55 -10 -62 -6 -7 -8
-18 -4 -24 4 -6 -4 -10 -17 -10 -13 0 -30 -6 -37 -12 -11 -11 -13 -10 -7 5 3
10 6 23 6 28 0 5 7 9 15 9 20 0 19 6 -5 30 -22 22 -29 50 -7 32 17 -14 49 11
46 35 -2 10 0 23 4 30 8 13 -1 43 -14 43 -5 0 -10 -19 -10 -42 -1 -24 -4 -33
-6 -20 -2 12 -8 20 -13 17 -8 -5 -90 -171 -90 -182 0 -4 -10 -17 -22 -30 l-21
-23 55 0 c103 0 146 21 117 56 -7 9 -8 14 -1 14 6 0 12 -5 14 -10 2 -6 9 -1
16 10 8 14 9 19 1 18 -6 -2 -14 3 -16 10 -3 7 1 13 8 11 45 -6 46 -4 33 87 -9
58 -10 94 -3 111 11 29 9 35 -7 25z"/>
<path d="M1737 2103 c-4 -3 -7 -11 -7 -17 0 -6 5 -5 12 2 6 6 9 14 7 17 -3 3
-9 2 -12 -2z"/>
<path d="M1930 2083 c0 -22 2 -25 10 -13 13 20 13 40 0 40 -5 0 -10 -12 -10
-27z"/>
<path d="M1663 2093 c-7 -2 -13 -11 -13 -18 0 -7 -5 -15 -12 -17 -6 -2 -9 -12
-5 -21 9 -23 26 -22 20 2 -3 13 2 21 16 26 12 3 21 13 21 21 0 14 -6 16 -27 7z"/>
<path d="M2355 2090 c-3 -5 -1 -10 4 -10 6 0 11 5 11 10 0 6 -2 10 -4 10 -3 0
-8 -4 -11 -10z"/>
<path d="M4810 2090 c0 -5 5 -10 10 -10 6 0 10 5 10 10 0 6 -4 10 -10 10 -5 0
-10 -4 -10 -10z"/>
<path d="M2000 2079 c0 -12 30 -39 43 -39 8 0 8 3 -1 8 -7 5 -10 15 -7 23 4
10 -1 15 -15 15 -11 0 -20 -3 -20 -7z"/>
<path d="M1733 2073 c-23 -9 -14 -19 20 -20 17 -1 26 1 19 3 -6 3 -10 10 -6
15 5 10 -12 11 -33 2z"/>
<path d="M2081 2064 c0 -11 3 -14 6 -6 3 7 2 16 -1 19 -3 4 -6 -2 -5 -13z"/>
<path d="M4959 2042 c0 -24 -1 -25 -9 -7 -8 18 -9 18 -9 -5 0 -26 16 -54 34
-57 15 -2 13 86 -2 92 -9 3 -13 -5 -14 -23z"/>
<path d="M1607 2046 c-4 -10 -7 -32 -7 -49 l1 -32 14 27 c10 17 12 34 7 49 -8
20 -9 20 -15 5z"/>
<path d="M1861 2031 c-18 -14 -21 -20 -10 -24 12 -5 12 -7 -1 -16 -12 -8 -11
-10 6 -9 14 2 20 8 19 22 -1 12 2 27 8 34 13 17 6 15 -22 -7z"/>
<path d="M5017 2024 c-3 -16 -2 -35 2 -43 8 -22 32 -26 24 -4 -5 11 -3 14 6 9
8 -5 6 4 -4 25 -10 19 -19 35 -20 37 -1 2 -5 -9 -8 -24z"/>
<path d="M1923 2017 c-3 -6 -1 -7 5 -3 7 4 12 1 12 -8 0 -9 5 -16 10 -16 6 0
10 8 10 18 0 20 -27 26 -37 9z"/>
<path d="M1970 2011 c0 -11 5 -23 10 -26 6 -3 10 3 10 14 0 11 -4 23 -10 26
-5 3 -10 -3 -10 -14z"/>
<path d="M2037 2004 c-15 -15 -6 -24 24 -24 20 0 29 4 27 13 -5 14 -40 21 -51
11z"/>
<path d="M4632 1975 c-6 -14 -18 -25 -27 -25 -17 0 -19 -9 -6 -29 6 -10 13
-11 29 -2 25 14 42 14 42 1 0 -5 -18 -15 -41 -21 -27 -9 -45 -22 -55 -41 -15
-29 -27 -39 -18 -13 4 8 1 15 -5 15 -6 0 -11 -6 -11 -14 0 -8 -2 -20 -5 -28
-8 -20 47 -15 72 7 12 10 19 24 16 31 -3 8 0 14 6 14 6 0 11 -8 11 -17 1 -14
6 -11 25 12 24 29 32 89 13 101 -4 3 -5 11 -1 19 10 27 -33 17 -45 -10z"/>
<path d="M4750 1980 c-6 -12 -9 -26 -6 -33 2 -7 5 -4 5 5 1 9 8 21 17 26 11 6
13 12 6 16 -6 4 -16 -3 -22 -14z"/>
<path d="M5126 1948 c-8 -32 -8 -38 5 -38 6 0 8 7 5 16 -3 8 -2 12 3 9 16 -9
22 12 7 24 -11 9 -15 7 -20 -11z"/>
<path d="M4954 1948 c-3 -4 0 -17 6 -28 12 -23 3 -71 -9 -51 -5 8 -15 5 -34
-9 -35 -28 -34 -46 4 -59 35 -12 53 -6 45 14 -8 22 53 31 68 10 8 -11 31 -19
62 -22 46 -5 51 -3 62 22 9 20 9 24 0 19 -8 -5 -9 -2 -5 9 3 10 2 17 -2 17 -5
0 -11 -7 -15 -15 -8 -21 -27 -19 -20 3 5 14 3 14 -11 -3 -17 -20 -17 -20 -10
4 6 18 4 23 -7 19 -16 -7 -61 28 -77 59 -11 21 -47 28 -57 11z m57 -45 c13
-16 12 -17 -3 -4 -17 13 -22 21 -14 21 2 0 10 -8 17 -17z"/>
<path d="M1655 1927 c-28 -33 -11 -39 24 -8 28 26 30 30 13 28 -12 0 -28 -10
-37 -20z"/>
<path d="M4715 1930 c-4 -12 -5 -24 -2 -27 3 -2 8 5 12 17 4 12 5 24 2 27 -3
2 -8 -5 -12 -17z"/>
<path d="M1930 1929 c0 -5 5 -7 10 -4 6 3 10 8 10 11 0 2 -4 4 -10 4 -5 0 -10
-5 -10 -11z"/>
<path d="M1963 1926 c3 -8 -2 -16 -14 -19 -25 -7 -25 -37 1 -37 11 0 20 4 20
9 0 5 8 11 18 13 10 3 19 12 19 21 0 9 -4 14 -8 11 -4 -2 -10 0 -14 6 -9 15
-28 12 -22 -4z"/>
<path d="M5043 1933 c-23 -9 -13 -23 16 -23 16 0 31 6 35 15 4 11 -1 15 -17
14 -12 0 -28 -3 -34 -6z"/>
<path d="M4138 1902 c-16 -10 -28 -22 -28 -28 0 -17 32 -42 63 -49 26 -7 27
-5 27 28 0 68 -13 78 -62 49z"/>
<path d="M4222 1901 c-8 -5 -12 -23 -10 -47 l3 -39 45 0 c38 0 45 3 42 19 -2
12 1 16 9 10 8 -4 10 -3 5 4 -10 17 -24 15 -28 -5 -3 -12 -9 -2 -18 25 -13 42
-23 49 -48 33z"/>
<path d="M4438 1903 c12 -2 20 -9 17 -14 -4 -5 -1 -9 4 -9 6 0 11 7 11 15 0
10 -9 15 -27 14 -24 -2 -25 -2 -5 -6z"/>
<path d="M4559 1893 c-13 -16 -12 -17 4 -4 16 13 21 21 13 21 -2 0 -10 -8 -17
-17z"/>
<path d="M1840 1880 c-9 -16 -8 -20 5 -20 8 0 15 9 15 20 0 11 -2 20 -5 20 -2
0 -9 -9 -15 -20z"/>
<path d="M2050 1891 c0 -8 -7 -11 -15 -7 -9 3 -15 0 -15 -9 0 -20 26 -19 34 1
4 9 4 19 1 22 -3 3 -5 0 -5 -7z"/>
<path d="M1786 1869 c-19 -19 -19 -19 1 -19 12 0 23 7 26 15 9 22 -6 25 -27 4z"/>
<path d="M1893 1883 c-7 -2 -13 -15 -13 -28 0 -12 6 -27 13 -32 13 -10 57 -15
57 -6 0 6 -40 74 -43 72 -1 0 -8 -3 -14 -6z"/>
<path d="M4702 1873 c-6 -12 -19 -28 -27 -36 -13 -13 -13 -16 0 -21 18 -7 48
36 43 61 -3 16 -5 16 -16 -4z"/>
<path d="M4838 1883 c7 -3 16 -2 19 1 4 3 -2 6 -13 5 -11 0 -14 -3 -6 -6z"/>
<path d="M5358 1883 c6 -2 10 -8 7 -13 -3 -4 5 -6 17 -2 21 5 21 6 2 13 -10 4
-23 8 -29 8 -5 -1 -4 -3 3 -6z"/>
<path d="M2340 1860 c0 -5 5 -10 11 -10 5 0 7 5 4 10 -3 6 -8 10 -11 10 -2 0
-4 -4 -4 -10z"/>
<path d="M4464 1855 c3 -8 1 -15 -5 -15 -20 0 -4 -33 17 -36 24 -4 38 9 48 44
7 20 4 22 -29 22 -29 0 -36 -3 -31 -15z"/>
<path d="M1596 1844 c-4 -9 -4 -19 -2 -21 8 -8 26 8 26 23 0 19 -16 18 -24 -2z"/>
<path d="M2076 1850 c-15 -5 -16 -9 -7 -14 7 -5 18 -3 24 3 14 14 6 20 -17 11z"/>
<path d="M2240 1850 c0 -5 5 -10 10 -10 6 0 10 5 10 10 0 6 -4 10 -10 10 -5 0
-10 -4 -10 -10z"/>
<path d="M5276 1835 c-3 -9 0 -15 9 -15 16 0 20 16 6 24 -5 3 -11 -1 -15 -9z"/>
<path d="M1722 1825 c-10 -12 -10 -15 2 -15 7 0 16 7 20 15 7 19 -5 19 -22 0z"/>
<path d="M4360 1831 c0 -5 7 -11 15 -15 9 -3 15 0 15 9 0 8 -7 15 -15 15 -8 0
-15 -4 -15 -9z"/>
<path d="M2270 1820 c0 -5 5 -10 11 -10 5 0 7 5 4 10 -3 6 -8 10 -11 10 -2 0
-4 -4 -4 -10z"/>
<path d="M2538 1805 c-10 -22 -9 -28 3 -36 20 -13 23 -12 36 16 10 22 8 27 -8
35 -16 9 -21 6 -31 -15z"/>
<path d="M5200 1819 c0 -5 5 -7 10 -4 6 3 10 8 10 11 0 2 -4 4 -10 4 -5 0 -10
-5 -10 -11z"/>
<path d="M5300 272 c-67 -21 -66 -106 1 -127 29 -10 73 24 77 59 5 43 -38 80
-78 68z m50 -37 c15 -18 6 -61 -14 -68 -25 -10 -56 5 -62 29 -8 30 11 54 41
54 12 0 28 -7 35 -15z"/>
<path d="M5654 245 c-32 -49 19 -101 65 -68 23 16 28 62 9 81 -20 20 -56 14
-74 -13z"/>
<path d="M6132 258 c-21 -21 -13 -28 28 -28 22 0 40 4 40 8 0 14 -23 32 -40
32 -9 0 -21 -5 -28 -12z"/>
</g>
</svg>
